<svg xmlns="http://www.w3.org/2000/svg" width="65" height="65" viewBox="0 0 65 65">
    <defs>
        <style>
            .cls-6{fill:#fff}.cls-5{isolation:isolate}
        </style>
    </defs>
    <g id="btn_top" transform="translate(-1682 -914)">
        <circle id="bg_top_icon" cx="32.5" cy="32.5" r="32.5" fill="#bc0505" opacity="0.8" transform="translate(1682 914)"/>
        <g id="ico_top" transform="translate(1509.148 516.953)">
            <path id="Line_39" fill="#fff" stroke="#fff" stroke-linecap="round" stroke-miterlimit="10" stroke-width="2.4px" d="M0 0L0 18.439" transform="translate(205.387 413.107)"/>
            <path id="Path_3419" fill="none" stroke="#fff" stroke-linecap="round" stroke-linejoin="round" stroke-miterlimit="10" stroke-width="2.4px" d="M197.851 420.584l7.537-7.537 7.537 7.537" transform="translate(0 0)"/>
        </g>
        <g id="txt_top_svg" class="cls-5" transform="translate(1580.035 580.156)">
            <g id="Group_4995" class="cls-5">
                <path id="Path_3420" d="M128.8 375.976v1.872h-2.256v6.588H124.2v-6.588h-2.232v-1.872z" class="cls-6"/>
                <path id="Path_3421" d="M132.152 383.962a4.158 4.158 0 0 1-1.578-1.548 4.594 4.594 0 0 1 0-4.476 4.115 4.115 0 0 1 1.578-1.542 4.608 4.608 0 0 1 4.374 0 4.083 4.083 0 0 1 1.566 1.542 4.636 4.636 0 0 1 0 4.476 4.115 4.115 0 0 1-1.572 1.548 4.553 4.553 0 0 1-4.368 0zm3.606-2.214a2.655 2.655 0 0 0 0-3.162 2.036 2.036 0 0 0-2.85 0 2.689 2.689 0 0 0 0 3.168 2.028 2.028 0 0 0 2.85-.006z" class="cls-6"/>
                <path id="Path_3422" d="M146.654 380.194a2.557 2.557 0 0 1-1.068 1.008 3.693 3.693 0 0 1-1.746.378h-1.164v2.856h-2.352v-8.46h3.516a3.819 3.819 0 0 1 1.734.36 2.471 2.471 0 0 1 1.074 1 2.914 2.914 0 0 1 .36 1.463 2.8 2.8 0 0 1-.354 1.395zm-2.046-1.4q0-.924-1-.924h-.936v1.836h.936q1 .002 1-.906z" class="cls-6"/>
            </g>
        </g>
    </g>
</svg>
