<svg width="286" height="156" viewBox="0 0 286 156" fill="none" xmlns="http://www.w3.org/2000/svg">
<rect width="286" height="156" fill="#C4C4C4"/>
<path d="M55.8145 94H52.5449V72.3262L45.9883 74.7344V71.7812L55.3047 68.2832H55.8145V94ZM77.8047 82.75C77.125 83.5586 76.3105 84.209 75.3613 84.7012C74.4238 85.1934 73.3926 85.4395 72.2676 85.4395C70.791 85.4395 69.502 85.0762 68.4004 84.3496C67.3105 83.623 66.4668 82.6035 65.8691 81.291C65.2715 79.9668 64.9727 78.5078 64.9727 76.9141C64.9727 75.2031 65.2949 73.6621 65.9395 72.291C66.5957 70.9199 67.5215 69.8711 68.7168 69.1445C69.9121 68.418 71.3066 68.0547 72.9004 68.0547C75.4316 68.0547 77.4238 69.0039 78.877 70.9023C80.3418 72.7891 81.0742 75.3672 81.0742 78.6367V79.5859C81.0742 84.5664 80.0898 88.2051 78.1211 90.502C76.1523 92.7871 73.1816 93.959 69.209 94.0176H68.5762V91.2754H69.2617C71.9453 91.2285 74.0078 90.5312 75.4492 89.1836C76.8906 87.8242 77.6758 85.6797 77.8047 82.75ZM72.7949 82.75C73.8848 82.75 74.8867 82.416 75.8008 81.748C76.7266 81.0801 77.4004 80.2539 77.8223 79.2695V77.9688C77.8223 75.8359 77.3594 74.1016 76.4336 72.7656C75.5078 71.4297 74.3359 70.7617 72.918 70.7617C71.4883 70.7617 70.3398 71.3125 69.4727 72.4141C68.6055 73.5039 68.1719 74.9453 68.1719 76.7383C68.1719 78.4844 68.5879 79.9258 69.4199 81.0625C70.2637 82.1875 71.3887 82.75 72.7949 82.75ZM102.326 94H85.5566V91.6621L94.416 81.8184C95.7285 80.3301 96.6309 79.123 97.123 78.1973C97.627 77.2598 97.8789 76.293 97.8789 75.2969C97.8789 73.9609 97.4746 72.8652 96.666 72.0098C95.8574 71.1543 94.7793 70.7266 93.4316 70.7266C91.8145 70.7266 90.5547 71.1895 89.6523 72.1152C88.7617 73.0293 88.3164 74.3066 88.3164 75.9473H85.0645C85.0645 73.5918 85.8203 71.6875 87.332 70.2344C88.8555 68.7812 90.8887 68.0547 93.4316 68.0547C95.8105 68.0547 97.6914 68.6816 99.0742 69.9355C100.457 71.1777 101.148 72.8359 101.148 74.9102C101.148 77.4297 99.543 80.4297 96.332 83.9102L89.4766 91.3457H102.326V94ZM121.82 83.084C121.82 86.8926 121.17 89.7227 119.869 91.5742C118.568 93.4258 116.535 94.3516 113.77 94.3516C111.039 94.3516 109.018 93.4492 107.705 91.6445C106.393 89.8281 105.713 87.1211 105.666 83.5234V79.1816C105.666 75.4199 106.316 72.625 107.617 70.7969C108.918 68.9688 110.957 68.0547 113.734 68.0547C116.488 68.0547 118.516 68.9395 119.816 70.709C121.117 72.4668 121.785 75.1855 121.82 78.8652V83.084ZM118.568 78.6367C118.568 75.8828 118.182 73.8789 117.408 72.625C116.635 71.3594 115.41 70.7266 113.734 70.7266C112.07 70.7266 110.857 71.3535 110.096 72.6074C109.334 73.8613 108.941 75.7891 108.918 78.3906V83.5938C108.918 86.3594 109.316 88.4043 110.113 89.7285C110.922 91.041 112.141 91.6973 113.77 91.6973C115.375 91.6973 116.564 91.0762 117.338 89.834C118.123 88.5918 118.533 86.6348 118.568 83.9629V78.6367ZM141.631 81.9238L145.85 74.9805H149.646L143.424 84.3848L149.84 94H146.078L141.684 86.8809L137.289 94H133.51L139.926 84.3848L133.703 74.9805H137.465L141.631 81.9238ZM172.393 94H169.123V72.3262L162.566 74.7344V71.7812L171.883 68.2832H172.393V94ZM197.969 83.084C197.969 86.8926 197.318 89.7227 196.018 91.5742C194.717 93.4258 192.684 94.3516 189.918 94.3516C187.188 94.3516 185.166 93.4492 183.854 91.6445C182.541 89.8281 181.861 87.1211 181.814 83.5234V79.1816C181.814 75.4199 182.465 72.625 183.766 70.7969C185.066 68.9688 187.105 68.0547 189.883 68.0547C192.637 68.0547 194.664 68.9395 195.965 70.709C197.266 72.4668 197.934 75.1855 197.969 78.8652V83.084ZM194.717 78.6367C194.717 75.8828 194.33 73.8789 193.557 72.625C192.783 71.3594 191.559 70.7266 189.883 70.7266C188.219 70.7266 187.006 71.3535 186.244 72.6074C185.482 73.8613 185.09 75.7891 185.066 78.3906V83.5938C185.066 86.3594 185.465 88.4043 186.262 89.7285C187.07 91.041 188.289 91.6973 189.918 91.6973C191.523 91.6973 192.713 91.0762 193.486 89.834C194.271 88.5918 194.682 86.6348 194.717 83.9629V78.6367ZM217.656 75.0859C217.656 76.3633 217.316 77.5 216.637 78.4961C215.969 79.4922 215.061 80.2715 213.912 80.834C215.248 81.4082 216.303 82.2461 217.076 83.3477C217.861 84.4492 218.254 85.6973 218.254 87.0918C218.254 89.3066 217.504 91.0703 216.004 92.3828C214.516 93.6953 212.553 94.3516 210.115 94.3516C207.654 94.3516 205.68 93.6953 204.191 92.3828C202.715 91.0586 201.977 89.2949 201.977 87.0918C201.977 85.709 202.352 84.4609 203.102 83.3477C203.863 82.2344 204.912 81.3906 206.248 80.8164C205.111 80.2539 204.215 79.4746 203.559 78.4785C202.902 77.4824 202.574 76.3516 202.574 75.0859C202.574 72.9297 203.266 71.2188 204.648 69.9531C206.031 68.6875 207.854 68.0547 210.115 68.0547C212.365 68.0547 214.182 68.6875 215.564 69.9531C216.959 71.2188 217.656 72.9297 217.656 75.0859ZM215.002 87.0215C215.002 85.5918 214.545 84.4258 213.631 83.5234C212.729 82.6211 211.545 82.1699 210.08 82.1699C208.615 82.1699 207.438 82.6152 206.547 83.5059C205.668 84.3965 205.229 85.5684 205.229 87.0215C205.229 88.4746 205.656 89.6172 206.512 90.4492C207.379 91.2812 208.58 91.6973 210.115 91.6973C211.639 91.6973 212.834 91.2812 213.701 90.4492C214.568 89.6055 215.002 88.4629 215.002 87.0215ZM210.115 70.7266C208.838 70.7266 207.801 71.125 207.004 71.9219C206.219 72.707 205.826 73.7793 205.826 75.1387C205.826 76.4395 206.213 77.4941 206.986 78.3027C207.771 79.0996 208.814 79.498 210.115 79.498C211.416 79.498 212.453 79.0996 213.227 78.3027C214.012 77.4941 214.404 76.4395 214.404 75.1387C214.404 73.8379 214 72.7773 213.191 71.957C212.383 71.1367 211.357 70.7266 210.115 70.7266ZM238.398 83.084C238.398 86.8926 237.748 89.7227 236.447 91.5742C235.146 93.4258 233.113 94.3516 230.348 94.3516C227.617 94.3516 225.596 93.4492 224.283 91.6445C222.971 89.8281 222.291 87.1211 222.244 83.5234V79.1816C222.244 75.4199 222.895 72.625 224.195 70.7969C225.496 68.9688 227.535 68.0547 230.312 68.0547C233.066 68.0547 235.094 68.9395 236.395 70.709C237.695 72.4668 238.363 75.1855 238.398 78.8652V83.084ZM235.146 78.6367C235.146 75.8828 234.76 73.8789 233.986 72.625C233.213 71.3594 231.988 70.7266 230.312 70.7266C228.648 70.7266 227.436 71.3535 226.674 72.6074C225.912 73.8613 225.52 75.7891 225.496 78.3906V83.5938C225.496 86.3594 225.895 88.4043 226.691 89.7285C227.5 91.041 228.719 91.6973 230.348 91.6973C231.953 91.6973 233.143 91.0762 233.916 89.834C234.701 88.5918 235.111 86.6348 235.146 83.9629V78.6367Z" fill="black" fillOpacity="0.54"/>
</svg>
