<svg width="286" height="156" viewBox="0 0 286 156" fill="none" xmlns="http://www.w3.org/2000/svg">
<rect width="286" height="156" fill="#C4C4C4"/>
<path d="M77.8555 84.4043H81.4062V87.0586H77.8555V93H74.5859V87.0586H62.9316V85.1426L74.3926 67.4062H77.8555V84.4043ZM66.623 84.4043H74.5859V71.8535L74.1992 72.5566L66.623 84.4043ZM99.8633 74.0859C99.8633 75.3633 99.5234 76.5 98.8438 77.4961C98.1758 78.4922 97.2676 79.2715 96.1191 79.834C97.4551 80.4082 98.5098 81.2461 99.2832 82.3477C100.068 83.4492 100.461 84.6973 100.461 86.0918C100.461 88.3066 99.7109 90.0703 98.2109 91.3828C96.7227 92.6953 94.7598 93.3516 92.3223 93.3516C89.8613 93.3516 87.8867 92.6953 86.3984 91.3828C84.9219 90.0586 84.1836 88.2949 84.1836 86.0918C84.1836 84.709 84.5586 83.4609 85.3086 82.3477C86.0703 81.2344 87.1191 80.3906 88.4551 79.8164C87.3184 79.2539 86.4219 78.4746 85.7656 77.4785C85.1094 76.4824 84.7812 75.3516 84.7812 74.0859C84.7812 71.9297 85.4727 70.2188 86.8555 68.9531C88.2383 67.6875 90.0605 67.0547 92.3223 67.0547C94.5723 67.0547 96.3887 67.6875 97.7715 68.9531C99.166 70.2188 99.8633 71.9297 99.8633 74.0859ZM97.209 86.0215C97.209 84.5918 96.752 83.4258 95.8379 82.5234C94.9355 81.6211 93.752 81.1699 92.2871 81.1699C90.8223 81.1699 89.6445 81.6152 88.7539 82.5059C87.875 83.3965 87.4355 84.5684 87.4355 86.0215C87.4355 87.4746 87.8633 88.6172 88.7188 89.4492C89.5859 90.2812 90.7871 90.6973 92.3223 90.6973C93.8457 90.6973 95.041 90.2812 95.9082 89.4492C96.7754 88.6055 97.209 87.4629 97.209 86.0215ZM92.3223 69.7266C91.0449 69.7266 90.0078 70.125 89.2109 70.9219C88.4258 71.707 88.0332 72.7793 88.0332 74.1387C88.0332 75.4395 88.4199 76.4941 89.1934 77.3027C89.9785 78.0996 91.0215 78.498 92.3223 78.498C93.623 78.498 94.6602 78.0996 95.4336 77.3027C96.2188 76.4941 96.6113 75.4395 96.6113 74.1387C96.6113 72.8379 96.207 71.7773 95.3984 70.957C94.5898 70.1367 93.5645 69.7266 92.3223 69.7266ZM120.605 82.084C120.605 85.8926 119.955 88.7227 118.654 90.5742C117.354 92.4258 115.32 93.3516 112.555 93.3516C109.824 93.3516 107.803 92.4492 106.49 90.6445C105.178 88.8281 104.498 86.1211 104.451 82.5234V78.1816C104.451 74.4199 105.102 71.625 106.402 69.7969C107.703 67.9688 109.742 67.0547 112.52 67.0547C115.273 67.0547 117.301 67.9395 118.602 69.709C119.902 71.4668 120.57 74.1855 120.605 77.8652V82.084ZM117.354 77.6367C117.354 74.8828 116.967 72.8789 116.193 71.625C115.42 70.3594 114.195 69.7266 112.52 69.7266C110.855 69.7266 109.643 70.3535 108.881 71.6074C108.119 72.8613 107.727 74.7891 107.703 77.3906V82.5938C107.703 85.3594 108.102 87.4043 108.898 88.7285C109.707 90.041 110.926 90.6973 112.555 90.6973C114.16 90.6973 115.35 90.0762 116.123 88.834C116.908 87.5918 117.318 85.6348 117.354 82.9629V77.6367ZM140.416 80.9238L144.635 73.9805H148.432L142.209 83.3848L148.625 93H144.863L140.469 85.8809L136.074 93H132.295L138.711 83.3848L132.488 73.9805H136.25L140.416 80.9238ZM165.219 78.6211H167.662C169.197 78.5977 170.404 78.1934 171.283 77.4082C172.162 76.623 172.602 75.5625 172.602 74.2266C172.602 71.2266 171.107 69.7266 168.119 69.7266C166.713 69.7266 165.588 70.1309 164.744 70.9395C163.912 71.7363 163.496 72.7969 163.496 74.1211H160.244C160.244 72.0938 160.982 70.4121 162.459 69.0762C163.947 67.7285 165.834 67.0547 168.119 67.0547C170.533 67.0547 172.426 67.6934 173.797 68.9707C175.168 70.248 175.854 72.0234 175.854 74.2969C175.854 75.4102 175.49 76.4883 174.764 77.5312C174.049 78.5742 173.07 79.3535 171.828 79.8691C173.234 80.3145 174.318 81.0527 175.08 82.084C175.854 83.1152 176.24 84.375 176.24 85.8633C176.24 88.1602 175.49 89.9824 173.99 91.3301C172.49 92.6777 170.539 93.3516 168.137 93.3516C165.734 93.3516 163.777 92.7012 162.266 91.4004C160.766 90.0996 160.016 88.3828 160.016 86.25H163.285C163.285 87.5977 163.725 88.6758 164.604 89.4844C165.482 90.293 166.66 90.6973 168.137 90.6973C169.707 90.6973 170.908 90.2871 171.74 89.4668C172.572 88.6465 172.988 87.4688 172.988 85.9336C172.988 84.4453 172.531 83.3027 171.617 82.5059C170.703 81.709 169.385 81.2988 167.662 81.2754H165.219V78.6211ZM193.467 67.3887V70.1484H192.869C190.338 70.1953 188.322 70.9453 186.822 72.3984C185.322 73.8516 184.455 75.8965 184.221 78.5332C185.568 76.9863 187.408 76.2129 189.74 76.2129C191.967 76.2129 193.742 76.998 195.066 78.5684C196.402 80.1387 197.07 82.166 197.07 84.6504C197.07 87.2871 196.35 89.3965 194.908 90.9785C193.479 92.5605 191.557 93.3516 189.143 93.3516C186.693 93.3516 184.707 92.4141 183.184 90.5391C181.66 88.6523 180.898 86.2266 180.898 83.2617V82.0137C180.898 77.3027 181.9 73.7051 183.904 71.2207C185.92 68.7246 188.914 67.4473 192.887 67.3887H193.467ZM189.195 78.9199C188.082 78.9199 187.057 79.2539 186.119 79.9219C185.182 80.5898 184.531 81.4277 184.168 82.4355V83.6309C184.168 85.7402 184.643 87.4395 185.592 88.7285C186.541 90.0176 187.725 90.6621 189.143 90.6621C190.607 90.6621 191.756 90.123 192.588 89.0449C193.432 87.9668 193.854 86.5547 193.854 84.8086C193.854 83.0508 193.426 81.6328 192.57 80.5547C191.727 79.4648 190.602 78.9199 189.195 78.9199ZM216.969 82.084C216.969 85.8926 216.318 88.7227 215.018 90.5742C213.717 92.4258 211.684 93.3516 208.918 93.3516C206.188 93.3516 204.166 92.4492 202.854 90.6445C201.541 88.8281 200.861 86.1211 200.814 82.5234V78.1816C200.814 74.4199 201.465 71.625 202.766 69.7969C204.066 67.9688 206.105 67.0547 208.883 67.0547C211.637 67.0547 213.664 67.9395 214.965 69.709C216.266 71.4668 216.934 74.1855 216.969 77.8652V82.084ZM213.717 77.6367C213.717 74.8828 213.33 72.8789 212.557 71.625C211.783 70.3594 210.559 69.7266 208.883 69.7266C207.219 69.7266 206.006 70.3535 205.244 71.6074C204.482 72.8613 204.09 74.7891 204.066 77.3906V82.5938C204.066 85.3594 204.465 87.4043 205.262 88.7285C206.07 90.041 207.289 90.6973 208.918 90.6973C210.523 90.6973 211.713 90.0762 212.486 88.834C213.271 87.5918 213.682 85.6348 213.717 82.9629V77.6367Z" fill="black" fillOpacity="0.54"/>
</svg>
