<svg width="286" height="156" viewBox="0 0 286 156" fill="none" xmlns="http://www.w3.org/2000/svg">
<rect width="286" height="156" fill="#C4C4C4"/>
<path d="M84.8145 93H81.5449V71.3262L74.9883 73.7344V70.7812L84.3047 67.2832H84.8145V93ZM111.111 93H94.3418V90.6621L103.201 80.8184C104.514 79.3301 105.416 78.123 105.908 77.1973C106.412 76.2598 106.664 75.293 106.664 74.2969C106.664 72.9609 106.26 71.8652 105.451 71.0098C104.643 70.1543 103.564 69.7266 102.217 69.7266C100.6 69.7266 99.3398 70.1895 98.4375 71.1152C97.5469 72.0293 97.1016 73.3066 97.1016 74.9473H93.8496C93.8496 72.5918 94.6055 70.6875 96.1172 69.2344C97.6406 67.7812 99.6738 67.0547 102.217 67.0547C104.596 67.0547 106.477 67.6816 107.859 68.9355C109.242 70.1777 109.934 71.8359 109.934 73.9102C109.934 76.4297 108.328 79.4297 105.117 82.9102L98.2617 90.3457H111.111V93ZM130.078 74.0859C130.078 75.3633 129.738 76.5 129.059 77.4961C128.391 78.4922 127.482 79.2715 126.334 79.834C127.67 80.4082 128.725 81.2461 129.498 82.3477C130.283 83.4492 130.676 84.6973 130.676 86.0918C130.676 88.3066 129.926 90.0703 128.426 91.3828C126.938 92.6953 124.975 93.3516 122.537 93.3516C120.076 93.3516 118.102 92.6953 116.613 91.3828C115.137 90.0586 114.398 88.2949 114.398 86.0918C114.398 84.709 114.773 83.4609 115.523 82.3477C116.285 81.2344 117.334 80.3906 118.67 79.8164C117.533 79.2539 116.637 78.4746 115.98 77.4785C115.324 76.4824 114.996 75.3516 114.996 74.0859C114.996 71.9297 115.688 70.2188 117.07 68.9531C118.453 67.6875 120.275 67.0547 122.537 67.0547C124.787 67.0547 126.604 67.6875 127.986 68.9531C129.381 70.2188 130.078 71.9297 130.078 74.0859ZM127.424 86.0215C127.424 84.5918 126.967 83.4258 126.053 82.5234C125.15 81.6211 123.967 81.1699 122.502 81.1699C121.037 81.1699 119.859 81.6152 118.969 82.5059C118.09 83.3965 117.65 84.5684 117.65 86.0215C117.65 87.4746 118.078 88.6172 118.934 89.4492C119.801 90.2812 121.002 90.6973 122.537 90.6973C124.061 90.6973 125.256 90.2812 126.123 89.4492C126.99 88.6055 127.424 87.4629 127.424 86.0215ZM122.537 69.7266C121.26 69.7266 120.223 70.125 119.426 70.9219C118.641 71.707 118.248 72.7793 118.248 74.1387C118.248 75.4395 118.635 76.4941 119.408 77.3027C120.193 78.0996 121.236 78.498 122.537 78.498C123.838 78.498 124.875 78.0996 125.648 77.3027C126.434 76.4941 126.826 75.4395 126.826 74.1387C126.826 72.8379 126.422 71.7773 125.613 70.957C124.805 70.1367 123.779 69.7266 122.537 69.7266ZM150.416 80.9238L154.635 73.9805H158.432L152.209 83.3848L158.625 93H154.863L150.469 85.8809L146.074 93H142.295L148.711 83.3848L142.488 73.9805H146.25L150.416 80.9238ZM187.014 69.2344L176.414 93H173.004L183.568 70.0781H169.717V67.4062H187.014V69.2344ZM207.475 93H190.705V90.6621L199.564 80.8184C200.877 79.3301 201.779 78.123 202.271 77.1973C202.775 76.2598 203.027 75.293 203.027 74.2969C203.027 72.9609 202.623 71.8652 201.814 71.0098C201.006 70.1543 199.928 69.7266 198.58 69.7266C196.963 69.7266 195.703 70.1895 194.801 71.1152C193.91 72.0293 193.465 73.3066 193.465 74.9473H190.213C190.213 72.5918 190.969 70.6875 192.48 69.2344C194.004 67.7812 196.037 67.0547 198.58 67.0547C200.959 67.0547 202.84 67.6816 204.223 68.9355C205.605 70.1777 206.297 71.8359 206.297 73.9102C206.297 76.4297 204.691 79.4297 201.48 82.9102L194.625 90.3457H207.475V93Z" fill="black" fillOpacity="0.54"/>
</svg>
