<svg xmlns="http://www.w3.org/2000/svg" xmlns:xlink="http://www.w3.org/1999/xlink" viewBox="0 0 591.56 449.81"><defs><style>.a{fill:none;}.b{isolation:isolate;}.c{clip-path:url(#a);}.d{fill:#901712;}.e{fill:#8d1711;}.f{fill:#941713;}.g{fill:#ca1b20;}.h{fill:#83150e;}.i{fill:gray;}.j{fill:#8f8f8f;}.k{fill:#838383;}.l{fill:#818181;}.m{fill:#9b9b9b;}.n{fill:#f0f0f0;}.o{clip-path:url(#b);}.p{fill:#858585;}.q{fill:#8a8a8a;}.r{clip-path:url(#c);}.s{fill:#949494;}.t{clip-path:url(#d);}.u{clip-path:url(#e);}.v{clip-path:url(#f);}.w{clip-path:url(#g);}.x{clip-path:url(#h);}</style><clipPath id="a" transform="translate(-38.65 -195.6)"><path class="a" d="M488.56,316.85l-3.59,28c-4.61,35.95-31.72,68-74.66,82.07l3.59-28C456.84,384.87,484,352.8,488.56,316.85Z"/></clipPath><clipPath id="b" transform="translate(-38.65 -195.6)"><path class="a" d="M421.28,475.71l-3.59,28a10.14,10.14,0,0,0-1.33-6A12.65,12.65,0,0,0,408,491c-3.18-.84-6.06.05-9,1l-.44.15,3.59-28,.44-.14c2.93-1,5.8-1.86,9-1a12.6,12.6,0,0,1,8.39,6.69A10.11,10.11,0,0,1,421.28,475.71Z"/></clipPath><clipPath id="c" transform="translate(-38.65 -195.6)"><path class="a" d="M435.45,477.33l-3.59,28a15.9,15.9,0,0,1-2.69,7c-3.07,4.51-8.66,8.27-15.76,10.6l3.59-28c7.1-2.33,12.69-6.1,15.76-10.6A15.9,15.9,0,0,0,435.45,477.33Z"/></clipPath><clipPath id="d" transform="translate(-38.65 -195.6)"><path class="a" d="M269.61,525.37l-3.59,28a10.07,10.07,0,0,0-1.34-6,12.62,12.62,0,0,0-8.39-6.7c-3.19-.84-6.06.05-9,1l-.44.14,3.59-28,.44-.14c2.93-1,5.8-1.86,9-1a12.64,12.64,0,0,1,8.39,6.7A10.11,10.11,0,0,1,269.61,525.37Z"/></clipPath><clipPath id="e" transform="translate(-38.65 -195.6)"><path class="a" d="M283.92,527.13l-3.59,28a16.33,16.33,0,0,1-.66,2.91,18.92,18.92,0,0,1-7.17,9.27l3.59-28a18.92,18.92,0,0,0,7.17-9.27A16.43,16.43,0,0,0,283.92,527.13Z"/></clipPath><clipPath id="f" transform="translate(-38.65 -195.6)"><path class="a" d="M262.14,545.58l-3.59,28L241,579.36l3.59-28Z"/></clipPath><clipPath id="g" transform="translate(-38.65 -195.6)"><path class="a" d="M196.23,569.1l-3.59,28a21.77,21.77,0,0,0-2.5-12.91,29.52,29.52,0,0,0-21.24-15,17.81,17.81,0,0,0-8.14.72l3.59-28a17.81,17.81,0,0,1,8.14-.72,29.52,29.52,0,0,1,21.24,15A21.75,21.75,0,0,1,196.23,569.1Z"/></clipPath><clipPath id="h" transform="translate(-38.65 -195.6)"><path class="a" d="M210.48,569.38l-3.59,28c-1.42,11.12-9.5,21-22.37,25.17l3.59-28C201,590.33,209.06,580.5,210.48,569.38Z"/></clipPath></defs><g class="b"><g class="b"><g class="c"><g class="b"><path class="d" d="M488.56,316.85l-3.59,28c-4.07,31.73-25.68,60.44-60.22,76.41l3.59-28c34.54-16,56.15-44.67,60.22-76.41" transform="translate(-38.65 -195.6)"/><path class="e" d="M428.34,393.26l-3.59,28A133.33,133.33,0,0,1,410.31,427l3.59-28a133.36,133.36,0,0,0,14.44-5.67" transform="translate(-38.65 -195.6)"/></g></g></g><polygon class="f" points="375.25 203.32 371.67 231.36 261.13 267.55 264.72 239.51 375.25 203.32"/><path class="g" d="M311.14,202.7c64-20.94,138.82,6,167.2,60.2s-.47,115.08-64.44,136L303.37,435.12l.36-230Z" transform="translate(-38.65 -195.6)"/><polygon class="h" points="264.72 239.51 261.13 267.55 261.5 37.56 265.09 9.53 264.72 239.51"/><polygon class="h" points="3.59 233.06 0 261.09 0.23 123.1 3.81 95.07 3.59 233.06"/><polygon class="f" points="86.97 205.76 83.38 233.79 0 261.09 3.59 233.06 86.97 205.76"/><polygon class="g" points="87.2 67.77 86.97 205.76 3.59 233.06 3.81 95.07 87.2 67.77"/><polygon class="f" points="218.39 254.68 214.8 282.71 131.42 310.02 135.01 281.98 218.39 254.68"/><polygon class="g" points="218.77 24.69 218.39 254.68 135.01 281.98 135.37 52 218.77 24.69"/><polygon class="h" points="135.01 281.98 131.42 310.02 131.78 80.03 135.37 52 135.01 281.98"/></g><g class="b"><polygon class="i" points="567.65 223.1 564.07 251.14 567.32 215.98 570.91 187.94 567.65 223.1"/><polygon class="j" points="587.37 182.55 583.78 210.59 577.09 261.46 580.68 233.42 587.37 182.55"/><polygon class="k" points="567.66 237.66 564.07 265.7 513.87 233.48 517.46 205.44 567.66 237.66"/><polygon class="l" points="520.87 248.8 517.28 276.84 492.81 256.12 496.39 228.09 520.87 248.8"/><polygon class="i" points="578.55 258.45 574.96 286.49 564.07 265.7 567.66 237.66 578.55 258.45"/><polygon class="m" points="591.56 254.19 587.97 282.23 574.96 286.49 578.55 258.45 591.56 254.19"/><polygon class="n" points="587.37 182.55 580.68 233.42 591.56 254.19 578.55 258.45 567.66 237.66 517.46 205.44 533.92 200.06 567.65 223.1 570.91 187.94 587.37 182.55"/><polygon class="l" points="545.15 269.39 541.56 297.42 528.12 286.01 531.71 257.98 545.15 269.39"/><polygon class="m" points="558.36 265.06 554.77 293.1 541.56 297.42 545.15 269.39 558.36 265.06"/><polygon class="m" points="531.71 257.98 528.12 286.01 494.56 297 498.15 268.96 531.71 257.98"/><polygon class="i" points="485.64 288.87 482.05 316.91 478.95 244.93 482.54 216.89 485.64 288.87"/><path class="n" d="M534.84,408,597,460.67,583.8,465l-13.44-11.41-33.56,11,.69,15.58-13.2,4.33-3.1-72Zm1.42,44,23.26-7.61L535,423.69,536.26,452" transform="translate(-38.65 -195.6)"/><polygon class="m" points="498.85 284.55 495.26 312.58 482.05 316.91 485.64 288.87 498.85 284.55"/></g><g class="b"><polygon class="m" points="476.34 291.92 472.75 319.95 427.91 334.63 431.5 306.6 476.34 291.92"/><polygon class="i" points="431.5 306.6 427.91 334.63 395.27 272.31 398.86 244.27 431.5 306.6"/><polygon class="n" points="411.89 240.01 438.86 291.52 476.43 279.22 476.34 291.92 431.5 306.6 398.86 244.27 411.89 240.01"/></g><g class="b"><g class="b"><g class="o"><g class="b"><path class="p" d="M421.28,475.71l-3.59,28a10.14,10.14,0,0,0-1.33-6A12.65,12.65,0,0,0,408,491a10.26,10.26,0,0,0-2-.32l3.59-28a10.26,10.26,0,0,1,2,.32,12.6,12.6,0,0,1,8.39,6.69,10.11,10.11,0,0,1,1.34,6" transform="translate(-38.65 -195.6)"/><path class="q" d="M409.55,462.66l-3.59,28a12.59,12.59,0,0,0-2.82.19l3.59-28a11.51,11.51,0,0,1,2.82-.19" transform="translate(-38.65 -195.6)"/><path class="j" d="M406.73,462.85l-3.59,28A31.89,31.89,0,0,0,399,492l-.44.15,3.59-28,.44-.14a30.39,30.39,0,0,1,4.17-1.14" transform="translate(-38.65 -195.6)"/></g></g></g><polygon class="m" points="363.48 268.53 359.89 296.56 338.08 303.7 341.67 275.67 363.48 268.53"/><g class="b"><g class="r"><g class="b"><path class="s" d="M435.45,477.33l-3.59,28a15.9,15.9,0,0,1-2.69,7c-2.38,3.5-6.28,6.55-11.22,8.83l3.59-28a27.08,27.08,0,0,0,11.22-8.82,15.9,15.9,0,0,0,2.69-7" transform="translate(-38.65 -195.6)"/><path class="j" d="M421.54,493.12l-3.59,28a43.3,43.3,0,0,1-4.54,1.77l3.59-28a44.2,44.2,0,0,0,4.54-1.78" transform="translate(-38.65 -195.6)"/></g></g></g><polygon class="m" points="378.36 299.29 374.77 327.33 353.93 334.15 357.52 306.12 378.36 299.29"/><polygon class="i" points="355.56 331.46 351.97 359.5 319.33 297.17 322.92 269.14 355.56 331.46"/><polygon class="m" points="368.57 327.2 364.98 355.24 351.97 359.5 355.56 331.46 368.57 327.2"/><path class="n" d="M416,452.33a25.2,25.2,0,0,1,16.9,13.2c3.58,6.84,3.52,13.33-.17,18.77-3.07,4.5-8.66,8.27-15.76,10.6l-20.83,6.82,11.05,21.09-13,4.26-32.64-62.33,33.84-11.08A39,39,0,0,1,416,452.33Zm4,26.78c1.52-2.37,2.05-5.41-.06-9.44a12.6,12.6,0,0,0-8.39-6.69c-3.19-.85-6.06,0-9,1l-.44.14-21.81,7.14,10.18,19.43,21.81-7.15.5-.16c2.91-.95,5.71-1.92,7.2-4.28" transform="translate(-38.65 -195.6)"/></g><g class="b"><polygon class="m" points="305.54 287.5 301.95 315.53 266.52 327.13 270.11 299.1 305.54 287.5"/><polygon class="m" points="316.48 313.58 312.89 341.62 279.79 352.45 283.38 324.42 316.48 313.58"/><polygon class="m" points="332.51 339.01 328.92 367.04 280.48 382.9 284.07 354.87 332.51 339.01"/><polygon class="i" points="284.07 354.87 280.48 382.9 247.88 320.65 251.47 292.62 284.07 354.87"/><path class="n" d="M344.28,470.4l-.09,12.7-35.43,11.6,7.6,14.51,33.1-10.84,5.66,10.82L322,520l8.05,15.37,41.19-13.48-.1,12.7-48.45,15.86-32.59-62.25Z" transform="translate(-38.65 -195.6)"/></g><g class="b"><g class="b"><g class="t"><g class="b"><path class="p" d="M269.61,525.37l-3.59,28a10.07,10.07,0,0,0-1.34-6,12.62,12.62,0,0,0-8.39-6.7,10.26,10.26,0,0,0-2-.32l3.59-28a9.53,9.53,0,0,1,2,.31,12.64,12.64,0,0,1,8.39,6.7,10.11,10.11,0,0,1,1.34,6" transform="translate(-38.65 -195.6)"/><path class="q" d="M257.88,512.32l-3.59,28a11.51,11.51,0,0,0-2.82.19l3.59-28a11.51,11.51,0,0,1,2.82-.19" transform="translate(-38.65 -195.6)"/><path class="j" d="M255.06,512.51l-3.59,28a31.89,31.89,0,0,0-4.17,1.14l-.44.14,3.59-28,.44-.14a28.68,28.68,0,0,1,4.17-1.14" transform="translate(-38.65 -195.6)"/></g></g></g><polygon class="m" points="211.81 318.19 208.22 346.22 186.41 353.36 190 325.33 211.81 318.19"/><g class="b"><g class="u"><g class="b"><path class="s" d="M283.92,527.13l-3.59,28a16.33,16.33,0,0,1-.66,2.91,18.92,18.92,0,0,1-7.17,9.27l3.59-28a18.92,18.92,0,0,0,7.17-9.27,16.43,16.43,0,0,0,.66-2.92" transform="translate(-38.65 -195.6)"/></g></g></g><polygon class="p" points="253.6 364.85 250.01 392.88 219.9 378.01 223.49 349.97 253.6 364.85"/><g class="b"><g class="v"><g class="b"><path class="j" d="M262.14,545.58l-3.59,28L241,579.36l3.59-28,17.58-5.75" transform="translate(-38.65 -195.6)"/></g></g></g><polygon class="m" points="269.99 359.48 266.4 387.51 250.01 392.88 253.6 364.85 269.99 359.48"/><polygon class="i" points="203.96 381.1 200.37 409.13 167.74 346.81 171.32 318.77 203.96 381.1"/><polygon class="m" points="216.97 376.84 213.38 404.87 200.37 409.13 203.96 381.1 216.97 376.84"/><path class="n" d="M276.09,539.32l32.55,15.76-16.39,5.37-30.11-14.87-17.58,5.75,11.06,21.11-13,4.26L210,514.37,243.8,503.3A38.79,38.79,0,0,1,264.43,502a25.21,25.21,0,0,1,16.91,13.19c2.77,5.3,3.42,10.31,1.92,14.89A18.92,18.92,0,0,1,276.09,539.32Zm-7.76-10.55c1.52-2.37,2.05-5.41-.06-9.44a12.64,12.64,0,0,0-8.39-6.7c-3.19-.84-6.06.06-9,1l-.44.14-21.81,7.14,10.17,19.42,21.81-7.14.51-.16c2.91-.95,5.71-1.92,7.2-4.28" transform="translate(-38.65 -195.6)"/></g><g class="b"><polygon class="m" points="125.7 346.37 122.11 374.4 104.77 380.08 108.36 352.04 125.7 346.37"/><g class="b"><g class="w"><g class="b"><path class="p" d="M196.23,569.1l-3.59,28a21.77,21.77,0,0,0-2.5-12.91,29.52,29.52,0,0,0-21.24-15c-.5-.08-1-.13-1.53-.16l3.59-28c.51,0,1,.08,1.53.16a29.52,29.52,0,0,1,21.24,15,21.75,21.75,0,0,1,2.5,12.9" transform="translate(-38.65 -195.6)"/><path class="q" d="M171,541.09l-3.59,28a18.15,18.15,0,0,0-4.09.25l3.59-28a17.57,17.57,0,0,1,4.09-.24" transform="translate(-38.65 -195.6)"/><path class="j" d="M166.87,541.33l-3.59,28a18.57,18.57,0,0,0-2.52.63l3.59-28a18.61,18.61,0,0,1,2.52-.64" transform="translate(-38.65 -195.6)"/></g></g></g><g class="b"><g class="x"><g class="b"><path class="s" d="M210.48,569.38l-3.59,28c-1.26,9.86-7.75,18.7-18.17,23.52l3.59-28c10.42-4.82,16.91-13.67,18.17-23.52" transform="translate(-38.65 -195.6)"/><path class="j" d="M192.31,592.9l-3.59,28a38.19,38.19,0,0,1-4.2,1.65l3.59-28a38.16,38.16,0,0,0,4.2-1.64" transform="translate(-38.65 -195.6)"/></g></g></g><polygon class="i" points="122.37 407.81 118.78 435.85 86.14 373.52 89.73 345.49 122.37 407.81"/><polygon class="m" points="149.46 398.94 145.87 426.98 118.78 435.85 122.37 407.81 149.46 398.94"/><path class="n" d="M155.47,532.22c19.49-6.38,42.73,2.49,51.68,19.59s.45,36.35-19,42.73L161,603.42l-32.64-62.33Zm36.61,46.42c4.92-5.83,5.84-14.44,1.65-22.44a29.52,29.52,0,0,0-21.24-15,17.81,17.81,0,0,0-8.14.72L147,547.65l21.32,40.71,17.34-5.68a14.28,14.28,0,0,0,6.41-4" transform="translate(-38.65 -195.6)"/></g><g class="b"><polygon class="i" points="73 397.81 69.41 425.85 53.1 394.7 56.69 366.67 73 397.81"/><polygon class="s" points="56.69 366.67 53.1 394.7 39.67 435.58 43.26 407.55 56.69 366.67"/><polygon class="i" points="84.7 420.15 81.11 448.18 75.09 436.68 78.68 408.65 84.7 420.15"/><polygon class="m" points="97.72 415.88 94.13 443.92 81.11 448.18 84.7 420.15 97.72 415.88"/><polygon class="p" points="38.59 421.77 35 449.81 21.07 442.93 24.66 414.89 38.59 421.77"/><polygon class="m" points="78.68 408.65 75.09 436.68 35 449.81 38.59 421.77 78.68 408.65"/><path class="n" d="M81,556.6l22.71-7.44,32.64,62.33-13,4.26-6-11.5L77.24,617.38,63.31,610.5Zm30.63,36.82L95.34,562.27,81.91,603.15l29.74-9.73" transform="translate(-38.65 -195.6)"/></g></svg>