<svg xmlns="http://www.w3.org/2000/svg" viewBox="0 0 970.99 653.77"><defs><clipPath id="clip-path" transform="translate(-143.73 -155.32)"><path d="M789.9 491.31 749.25 493c-4.64.19-8.14-1.83-7.81-4.51l2.92-23.49c.33-2.68 4.37-5 9-5.21l40.64-1.66c4.65-.19 8.15 1.82 7.81 4.51l-2.92 23.46c-.31 2.69-4.35 5.02-8.99 5.21Z" fill="none"/></clipPath><style>.cls-13,.cls-14,.cls-16,.cls-23,.cls-24,.cls-25,.cls-26,.cls-27,.cls-28,.cls-29,.cls-31,.cls-69,.cls-82{fill:none}.cls-3{fill:#99b4d9}.cls-5{fill:#fff}.cls-13{stroke:#3d325d}.cls-13,.cls-14,.cls-16,.cls-23,.cls-24,.cls-25,.cls-26,.cls-27,.cls-28,.cls-29,.cls-31,.cls-69,.cls-82{stroke-miterlimit:10}.cls-13,.cls-24,.cls-27,.cls-28{stroke-width:3px}.cls-14{stroke:#333759}.cls-14,.cls-25,.cls-82{stroke-width:2px}.cls-15{fill:#6a6e9b}.cls-16{stroke:#8c91a5}.cls-16,.cls-23,.cls-26,.cls-29{stroke-width:4px}.cls-17{fill:#6e729d}.cls-19{fill:#dee9f8}.cls-20{fill:#bbb5b9}.cls-21{fill:#605f60}.cls-22{fill:#000841}.cls-23,.cls-24{stroke:#b3bae0}.cls-25{stroke:#8386b1}.cls-26,.cls-27,.cls-28{stroke:#bdcae9}.cls-28{stroke-dasharray:5 5}.cls-29{stroke:#edeef4}.cls-31{stroke:#8085ae}.cls-35{fill:#f7e690}.cls-37{fill:#fffffe}.cls-41{fill:#f9f9f9}.cls-42{fill:#0f2034}.cls-43{fill:#e31b25}.cls-44{fill:#c7a496}.cls-45{fill:#1d374e}.cls-46{fill:#bcbec0}.cls-47{fill:#f0c6b4}.cls-48{fill:#ba6000}.cls-49{fill:#303033}.cls-50{fill:#121214}.cls-51{fill:#603913}.cls-52{fill:#9c251f}.cls-53{fill:#939598}.cls-64{fill:#201640}.cls-65{fill:#fefaff}.cls-67{fill:#f4c284}.cls-69{stroke:#ccc}.cls-71{fill:#65871b}.cls-72,.cls-74{fill:#77a01f}.cls-73{fill:#94c628}.cls-74,.cls-78{opacity:.5}.cls-75{fill:#e8ad85}.cls-79{opacity:.3}.cls-80{fill:#3c2415}.cls-81{fill:#d21a22}.cls-82{stroke:#c5ccec}</style></defs><path d="M253.5 246.5c68-44 114.21-62.9 189-78 0 0 190.35-38.44 305 16 9.84 4.67 19 10 19 10 32.83 19.09 67.71 47.93 76 54 41 30 81 11 143 24 35.66 7.48 85.8 26.09 112 71 35.54 60.92 6.42 143.19-2 167-11.55 32.64-17.68 29.58-27 62-8.82 30.67-30 84-3 130 7.83 13.34 12.93 22.12 13 38 .09 20.07-10.57 40.11-26 52-15.77 12.15-33.64 13.58-40 14-111.62 7.46-687.44-4-752 1a79.37 79.37 0 0 1-13 0c-37.2-3-72.58-32.38-90-67-21.14-42-17-94 6-125 4.61-6.22 15.74-16.81 38-38 32-30.43 33.19-28.17 40-38 15.25-22 32-46 17-78-7.38-15.75-15.79-22.79-31-46-3.48-5.32-26.17-39.92-28-72-2.5-44.35 32.27-82.94 54-97Z" transform="translate(-143.73 -155.32)" fill="#787289" id="Layer_2" data-name="Layer 2"/><g id="Layer_4" data-name="Layer 4"><path class="cls-3" d="M379.27 571.68h251v71h-251z"/><rect x="178.27" y="133.68" width="697" height="445" rx="18.5" fill="#6e749e"/><rect class="cls-3" x="156.27" y="133.68" width="697" height="445" rx="18.5"/><rect class="cls-5" x="174.27" y="150.68" width="662" height="396" rx="13.43"/><rect x="365.27" y="636.68" width="282" height="12" rx="6" fill="#3f4559"/><path d="M318 332v-12.57A13.43 13.43 0 0 1 331.43 306h635.14A13.43 13.43 0 0 1 980 319.43V332Z" transform="translate(-143.73 -155.32)" fill="#020841"/></g><g id="Layer_5" data-name="Layer 5"><circle cx="762.13" cy="164.54" r="8.14" fill="#46c454"/><circle cx="788.13" cy="164.54" r="8.14" fill="#f3be4f"/><circle cx="814.13" cy="164.54" r="8.14" fill="#ea6a5f"/></g><g id="Layer_6" data-name="Layer 6"><rect x="196.27" y="217.68" width="107" height="269" rx="11.88" fill="#010742"/><rect x="267.27" y="191.68" width="536" height="326" rx="10.92" fill="#c5d1ef"/></g><g id="Layer_10" data-name="Layer 10"><path class="cls-13" d="M214.19 244.28h53M214.19 257.78h53M214.19 271.28h53M214.19 284.78h53M214.19 298.28h53M214.19 311.78h53M214.19 325.28h53"/><path class="cls-14" d="M219.27 369.18h48M219.27 393.68h48M219.27 418.18h48M219.27 442.68h48M219.27 467.18h48"/><circle class="cls-15" cx="220.27" cy="244.68" r="5"/><circle class="cls-15" cx="253.27" cy="257.68" r="5"/><circle class="cls-15" cx="230.27" cy="271.68" r="5"/><circle class="cls-15" cx="246.27" cy="284.68" r="5"/><circle class="cls-15" cx="256.27" cy="298.68" r="5"/><circle class="cls-15" cx="235.27" cy="311.68" r="5"/><circle class="cls-15" cx="249.27" cy="325.68" r="5"/><path class="cls-16" d="M251.82 369.7h5.5M228.82 393.7h5.5M244.82 418.7h5.5M257.82 442.7h5.5M231.82 467.7h5.5"/></g><g id="Layer_7" data-name="Layer 7"><rect class="cls-17" x="291.27" y="204.68" width="230" height="71" rx="6.74"/><rect class="cls-17" x="380.27" y="281.68" width="141" height="144" rx="6.02"/><rect class="cls-17" x="284.27" y="309.68" width="81" height="115" rx="5.94"/></g><rect x="280.27" y="430.68" width="321" height="72" rx="9.07" fill="#fffeff" id="Layer_14" data-name="Layer 14"/><g id="Layer_15" data-name="Layer 15"><path class="cls-19" d="M283.27 433.68h52v29h-52z"/><path class="cls-20" d="M283.27 463.68h272v4h-272zM283.27 500.68h272v4h-272z"/><path class="cls-21" d="M356.27 463.68h39v4h-39zM457.27 500.68h39v4h-39zM322.27 500.68h39v4h-39z"/><path class="cls-22" d="M283.27 470.68h70v29h-70zM357.27 470.68h13v29h-13zM373.27 470.68h74v29h-74zM451.27 470.68h50v29h-50zM505.27 470.68h21v29h-21zM528.27 470.68h46v29h-46z"/><path class="cls-19" d="M337.27 433.68h59v29h-59zM398.27 433.68h123v29h-123zM524.27 433.68h4v29h-4zM530.27 433.68h25v29h-25z"/></g><g id="Layer_8" data-name="Layer 8"><path class="cls-23" d="M299.27 217.68h6"/><path class="cls-24" d="M336.27 217.68h3.5"/><path class="cls-25" d="M412.27 215.68h45M412.27 227.68h45M412.27 239.68h45M412.27 251.68h45M412.27 263.68h45"/><path class="cls-24" d="M336.27 225.68h3.5M336.27 232.68h3.5M336.27 239.68h3.5M336.27 246.68h3.5M336.27 253.68h3.5"/><path class="cls-23" d="M299.27 225.68h6M299.27 238.68h30"/><path class="cls-26" d="M293.27 325.68h62M393.27 292.68h70"/><path class="cls-27" d="M404.27 328.68h2.5"/><path class="cls-28" d="M411.77 328.68h57.5"/><path class="cls-27" d="M471.77 328.68h2.5M404.27 335.18h70M404.27 308.68h2.5"/><path class="cls-28" d="M411.77 308.68h57.5"/><path class="cls-27" d="M471.77 308.68h2.5M404.27 315.18h70M404.27 349.68h2.5"/><path class="cls-28" d="M411.77 349.68h57.5"/><path class="cls-27" d="M471.77 349.68h2.5M404.27 356.18h70M404.27 370.68h2.5"/><path class="cls-28" d="M411.77 370.68h57.5"/><path class="cls-27" d="M471.77 370.68h2.5M404.27 377.18h70M404.27 391.68h2.5"/><path class="cls-28" d="M411.77 391.68h57.5"/><path class="cls-27" d="M471.77 391.68h2.5M404.27 398.18h70M404.27 411.68h2.5"/><path class="cls-28" d="M411.77 411.68h57.5"/><path class="cls-27" d="M471.77 411.68h2.5M404.27 418.18h70"/><path class="cls-26" d="M293.27 339.68h62M293.27 353.68h62"/><path class="cls-23" d="M299.27 250.68h22M391.27 311.68h4M391.27 331.68h4M391.27 352.68h4M391.27 373.68h4M391.27 393.68h4M391.27 413.68h4M310.27 217.68h19M310.27 225.68h19"/><path class="cls-29" d="M447.27 215.68h5.5M422.27 227.68h5.5M436.27 239.68h5.5M418.27 251.68h5.5M440.27 263.68h5.5"/><rect x="461.27" y="208.68" width="54" height="62" rx="3.99" fill="#c5d0eb"/><path class="cls-31" d="M380.27 300.68h141M380.27 321.18h141M380.27 341.68h141M380.27 362.18h141M380.27 382.68h141M380.27 403.18h141"/><path d="m468.64 545.63 5.18-24.56a25 25 0 1 0 18.5 16.82Z" transform="translate(-143.73 -155.32)" fill="#d1852a"/><path d="M494.82 535.39a25 25 0 0 0-18.5-16.82l-5.18 24.56Z" transform="translate(-143.73 -155.32)" fill="#e8e84b"/><path fill="#bdcae9" d="m474.39 296.91 4.13-7.15h-8.25l4.12 7.15z"/><path class="cls-35" d="M643 460.14h-16.2a.79.79 0 0 0-.8.79v12.27a.8.8 0 0 0 .8.8H645a.8.8 0 0 0 .8-.8v-10.13ZM643 480.14h-16.2a.79.79 0 0 0-.8.79v12.27a.8.8 0 0 0 .8.8H645a.8.8 0 0 0 .8-.8v-10.13ZM643 501.14h-16.2a.79.79 0 0 0-.8.79v12.27a.8.8 0 0 0 .8.8H645a.8.8 0 0 0 .8-.8v-10.13ZM643 521.14h-16.2a.79.79 0 0 0-.8.79v12.27a.8.8 0 0 0 .8.8H645a.8.8 0 0 0 .8-.8v-10.13ZM643 541.14h-16.2a.79.79 0 0 0-.8.79v12.27a.8.8 0 0 0 .8.8H645a.8.8 0 0 0 .8-.8v-10.13ZM643 562.14h-16.2a.79.79 0 0 0-.8.79v12.27a.8.8 0 0 0 .8.8H645a.8.8 0 0 0 .8-.8v-10.13Z" transform="translate(-143.73 -155.32)"/></g><g id="Layer_16" data-name="Layer 16"><path d="M969 457.93v326.7A18.38 18.38 0 0 1 950.63 803H704.37A18.38 18.38 0 0 1 686 784.63V572.37A18.38 18.38 0 0 1 704.37 554h31.89s5.74 0 8.74-3a10.7 10.7 0 0 0 3-6.93v-86.14A13.93 13.93 0 0 1 761.93 444h193.14A13.93 13.93 0 0 1 969 457.93Z" transform="translate(-143.73 -155.32)" fill="#3f2d50"/><g id="Layer_17" data-name="Layer 17"><rect class="cls-37" x="796.27" y="306.68" width="18" height="18" rx="1.75"/><rect class="cls-37" x="796.27" y="342.68" width="18" height="18" rx="1.75"/><rect class="cls-37" x="796.27" y="378.68" width="18" height="18" rx="1.75"/><rect class="cls-37" x="796.27" y="414.68" width="18" height="18" rx="1.75"/><rect class="cls-37" x="796.27" y="450.68" width="18" height="18" rx="1.75"/><rect class="cls-37" x="796.27" y="486.68" width="18" height="18" rx="1.75"/><rect class="cls-37" x="796.27" y="522.68" width="18" height="18" rx="1.75"/><rect class="cls-37" x="796.27" y="558.68" width="18" height="18" rx="1.75"/><rect class="cls-37" x="796.27" y="594.68" width="18" height="18" rx="1.75"/><rect class="cls-37" x="560.27" y="414.68" width="18" height="18" rx="1.75"/><rect class="cls-37" x="560.27" y="450.68" width="18" height="18" rx="1.75"/><rect class="cls-37" x="560.27" y="486.68" width="18" height="18" rx="1.75"/><rect class="cls-37" x="560.27" y="522.68" width="18" height="18" rx="1.75"/><rect class="cls-37" x="560.27" y="558.68" width="18" height="18" rx="1.75"/><rect class="cls-37" x="560.27" y="594.68" width="18" height="18" rx="1.75"/></g></g><g id="Layer_20" data-name="Layer 20"><path d="M898.26 642H769.18c-4.67 0-7.73-3.79-6.83-8.46l13.3-69.08a10.76 10.76 0 0 1 10.09-8.46h129.08c4.67 0 7.73 3.79 6.83 8.46l-13.3 69.08a10.76 10.76 0 0 1-10.09 8.46Z" transform="translate(-143.73 -155.32)" fill="#261931"/><path d="M889.26 642H760.18c-4.67 0-7.73-3.79-6.83-8.46l13.3-69.08a10.76 10.76 0 0 1 10.09-8.46h129.08c4.67 0 7.73 3.79 6.83 8.46l-13.3 69.08a10.76 10.76 0 0 1-10.09 8.46Z" transform="translate(-143.73 -155.32)" fill="#d7e2f9"/></g><g id="Layer_21" data-name="Layer 21"><path d="M804.76 625h69.6a9.18 9.18 0 0 0 8.6-7.2l8.04-41.6a5.76 5.76 0 0 0-5.8-7.2h-69.6a9.18 9.18 0 0 0-8.6 7.2l-8 41.6a5.76 5.76 0 0 0 5.76 7.2Z" transform="translate(-143.73 -155.32)" fill="#70729d"/><path class="cls-41" d="M814.44 575h-1.32a.67.67 0 0 1-.68-.84l.26-1.32a1.07 1.07 0 0 1 1-.84h1.3a.68.68 0 0 1 .68.84l-.26 1.32a1.07 1.07 0 0 1-.98.84ZM820.44 575h-1.32a.67.67 0 0 1-.68-.84l.26-1.32a1.07 1.07 0 0 1 1-.84h1.3a.68.68 0 0 1 .68.84l-.26 1.32a1.07 1.07 0 0 1-.98.84ZM826.44 575h-1.32a.67.67 0 0 1-.68-.84l.26-1.32a1.07 1.07 0 0 1 1-.84h1.3a.68.68 0 0 1 .68.84l-.26 1.32a1.07 1.07 0 0 1-.98.84ZM832.44 575h-1.32a.67.67 0 0 1-.68-.84l.26-1.32a1.07 1.07 0 0 1 1-.84h1.3a.68.68 0 0 1 .68.84l-.26 1.32a1.07 1.07 0 0 1-.98.84ZM838.44 575h-1.32a.67.67 0 0 1-.68-.84l.26-1.32a1.07 1.07 0 0 1 1-.84h1.3a.68.68 0 0 1 .68.84l-.26 1.32a1.07 1.07 0 0 1-.98.84ZM844.44 575h-1.32a.67.67 0 0 1-.68-.84l.26-1.32a1.07 1.07 0 0 1 1-.84h1.3a.68.68 0 0 1 .68.84l-.26 1.32a1.07 1.07 0 0 1-.98.84ZM850.44 575h-1.32a.67.67 0 0 1-.68-.84l.26-1.32a1.07 1.07 0 0 1 1-.84h1.3a.68.68 0 0 1 .68.84l-.26 1.32a1.07 1.07 0 0 1-.98.84ZM856.44 575h-1.32a.67.67 0 0 1-.68-.84l.26-1.32a1.07 1.07 0 0 1 1-.84h1.3a.68.68 0 0 1 .68.84l-.26 1.32a1.07 1.07 0 0 1-.98.84ZM862.44 575h-1.32a.67.67 0 0 1-.68-.84l.26-1.32a1.07 1.07 0 0 1 1-.84h1.3a.68.68 0 0 1 .68.84l-.26 1.32a1.07 1.07 0 0 1-.98.84ZM868.44 575h-1.32a.67.67 0 0 1-.68-.84l.26-1.32a1.07 1.07 0 0 1 1-.84h1.3a.68.68 0 0 1 .68.84l-.26 1.32a1.07 1.07 0 0 1-.98.84ZM874.44 575h-1.32a.67.67 0 0 1-.68-.84l.26-1.32a1.07 1.07 0 0 1 1-.84h1.3a.68.68 0 0 1 .68.84l-.26 1.32a1.07 1.07 0 0 1-.98.84ZM880.44 575h-1.32a.67.67 0 0 1-.68-.84l.26-1.32a1.07 1.07 0 0 1 1-.84h1.3a.68.68 0 0 1 .68.84l-.26 1.32a1.07 1.07 0 0 1-.98.84ZM886.44 575h-1.32a.67.67 0 0 1-.68-.84l.26-1.32a1.07 1.07 0 0 1 1-.84h1.3a.68.68 0 0 1 .68.84l-.26 1.32a1.07 1.07 0 0 1-.98.84ZM805.3 622H804a.68.68 0 0 1-.68-.84l.26-1.32a1.07 1.07 0 0 1 1-.84h1.32a.67.67 0 0 1 .68.84l-.26 1.32a1.07 1.07 0 0 1-1.02.84ZM811.3 622H810a.68.68 0 0 1-.68-.84l.26-1.32a1.07 1.07 0 0 1 1-.84h1.32a.67.67 0 0 1 .68.84l-.26 1.32a1.07 1.07 0 0 1-1.02.84ZM817.3 622H816a.68.68 0 0 1-.68-.84l.26-1.32a1.07 1.07 0 0 1 1-.84h1.32a.67.67 0 0 1 .68.84l-.26 1.32a1.07 1.07 0 0 1-1.02.84ZM823.3 622H822a.68.68 0 0 1-.68-.84l.26-1.32a1.07 1.07 0 0 1 1-.84h1.32a.67.67 0 0 1 .68.84l-.26 1.32a1.07 1.07 0 0 1-1.02.84ZM829.3 622H828a.68.68 0 0 1-.68-.84l.26-1.32a1.07 1.07 0 0 1 1-.84h1.32a.67.67 0 0 1 .68.84l-.26 1.32a1.07 1.07 0 0 1-1.02.84ZM835.3 622H834a.68.68 0 0 1-.68-.84l.26-1.32a1.07 1.07 0 0 1 1-.84h1.32a.67.67 0 0 1 .68.84l-.26 1.32a1.07 1.07 0 0 1-1.02.84ZM841.3 622H840a.68.68 0 0 1-.68-.84l.26-1.32a1.07 1.07 0 0 1 1-.84h1.32a.67.67 0 0 1 .68.84l-.26 1.32a1.07 1.07 0 0 1-1.02.84ZM847.3 622H846a.68.68 0 0 1-.68-.84l.26-1.32a1.07 1.07 0 0 1 1-.84h1.32a.67.67 0 0 1 .68.84l-.26 1.32a1.07 1.07 0 0 1-1.02.84ZM853.3 622H852a.68.68 0 0 1-.68-.84l.26-1.32a1.07 1.07 0 0 1 1-.84h1.32a.67.67 0 0 1 .68.84l-.26 1.32a1.07 1.07 0 0 1-1.02.84ZM859.3 622H858a.68.68 0 0 1-.68-.84l.26-1.32a1.07 1.07 0 0 1 1-.84h1.32a.67.67 0 0 1 .68.84l-.26 1.32a1.07 1.07 0 0 1-1.02.84ZM865.3 622H864a.68.68 0 0 1-.68-.84l.26-1.32a1.07 1.07 0 0 1 1-.84h1.32a.67.67 0 0 1 .68.84l-.26 1.32a1.07 1.07 0 0 1-1.02.84ZM871.3 622H870a.68.68 0 0 1-.68-.84l.26-1.32a1.07 1.07 0 0 1 1-.84h1.32a.67.67 0 0 1 .68.84l-.26 1.32a1.07 1.07 0 0 1-1.02.84ZM877.3 622H876a.68.68 0 0 1-.68-.84l.26-1.32a1.07 1.07 0 0 1 1-.84h1.32a.67.67 0 0 1 .68.84l-.26 1.32a1.07 1.07 0 0 1-1.02.84Z" transform="translate(-143.73 -155.32)"/><path class="cls-42" d="m684.99 437.32 1.46.29-.5 1.66-.4 1.7-.33.36-2.21-.43-.58-.62.54-1.93 2.02-1.03z"/><path class="cls-5" d="M837.78 592.59c-3-.42-4.25.08-8 .19-1.36 1.84-1.09 5.15-1.09 5.15a14.93 14.93 0 0 1 6.4.84c.27.2 3.14-2.76 3.14-2.76s.91-3.25-.45-3.42Z" transform="translate(-143.73 -155.32)"/><path class="cls-43" d="M829.35 597.93c0-.08-.58-1.87.81-5.17h.29c-1.34 3.2-.83 5-.83 5Z" transform="translate(-143.73 -155.32)"/><path class="cls-44" d="m697.74 436.1-.11.6-.7.94-.61 1.43.35 1.61.73 1.14 1.57.08 1.95-.87.66-1.27-.23-2.27-1.2-1.81h-1.7l-.71.42z"/><path class="cls-45" d="M840.69 594c0 .26.19 2.36 1.83 2.36s2.53-2 2.53-2l2.12.61-1.17 2.09-3.36 1.29-2.35-.42s-1.18-2.29-1.2-2.46.24-2.52.23-2.57 1.88-.88 1.88-.88h.2a6.29 6.29 0 0 0-.71 1.98Z" transform="translate(-143.73 -155.32)"/><path class="cls-5" d="M846.1 618.26a2.38 2.38 0 0 1 0-.26 31.41 31.41 0 0 0 .48-9.82c-.41-.61-9.56.39-11.15 0A32.21 32.21 0 0 0 831 618a21 21 0 0 1 6.88.24c.41-.83.64-1.34.64-1.34a1.54 1.54 0 0 0 1.07.1c-.1.46-.2 1-.29 1.44a16.69 16.69 0 0 0 6.8-.18Z" transform="translate(-143.73 -155.32)"/><path class="cls-5" d="M837.86 618.23A21 21 0 0 0 831 618M846.1 618.26a16.69 16.69 0 0 1-6.82.17" transform="translate(-143.73 -155.32)"/><path class="cls-43" d="m846.42 608.37-.29.2a41.57 41.57 0 0 1-1 9.9l.28-.06a42.8 42.8 0 0 0 1.01-10.04ZM845.46 618.41l-.28.06" transform="translate(-143.73 -155.32)"/><path class="cls-46" d="m695.83 461.66 4.04-2.43-4.17 3.08.13-.65zM694.76 461.57l-2.18-2.92 1.87 3.58.31-.66z"/><path class="cls-42" d="m835.8 606.53-.32 1.66c2.55 2.89 11.37 1 11.17-.23l-.15-1.7Z" transform="translate(-143.73 -155.32)"/><path class="cls-5" d="M846.45 592.43s.18 0-.52 2a4.14 4.14 0 0 1-3.86 2.83 2.87 2.87 0 0 1-2-3.11 4.28 4.28 0 0 1 1-2.09 25.73 25.73 0 0 1-3.38.57c-3.21 1-2.85 7.18-2.85 7.18s1.13 4.71.87 6.76c.06 1.66 10.13 2 10.7-.27.36-1.23 2.23-3.44 3.09-5 .52-1 2.24-6.59 2.24-6.59Z" transform="translate(-143.73 -155.32)"/><path class="cls-43" d="M840.27 607.87H840a21.22 21.22 0 0 0 .43-4.5 11.79 11.79 0 0 1 .87-4.94c.07-.2-.28-.39-.68-.61a2.82 2.82 0 0 1-1.87-3 4.53 4.53 0 0 1 1.22-2.59c.09-.09.44-.09.44-.09a4.58 4.58 0 0 0-1.38 2.66 2.6 2.6 0 0 0 1.76 2.72c.52.28.92.51.77.91a11.41 11.41 0 0 0-.85 4.84 21 21 0 0 1-.44 4.6ZM841.24 607.88h-.27a21.28 21.28 0 0 0 .78-5.34 8.51 8.51 0 0 1 1-4.22c.18-.33.71-.53 1.37-.79a5.19 5.19 0 0 0 2.84-1.91 3.07 3.07 0 0 0 .53-2.64l.26-.15s.5 1.07-.55 2.89a5.57 5.57 0 0 1-3 2.07c-.55.21-1.07.41-1.18.62a8.25 8.25 0 0 0-.92 4.09 21.37 21.37 0 0 1-.86 5.38Z" transform="translate(-143.73 -155.32)"/><path class="cls-46" d="M843.11 600.27a18.07 18.07 0 0 1 6.29-4.62 35 35 0 0 1-2.9 3.05Z" transform="translate(-143.73 -155.32)"/><path class="cls-47" d="M834.87 598c1.92 1.18 4.27 1.47 6.33 2.32.25.14-.63 2.83-.63 2.83s-.93.88-1.4.82c-2-.87-4-3-5.65-3.68 0-.28-.67-.42.08-1.56s.8-.73 1.27-.73Z" transform="translate(-143.73 -155.32)"/><path class="cls-48" d="M848.13 575.11a1.38 1.38 0 0 0-.35-2.06 1.79 1.79 0 0 0-2.21.75l-12 19.83a.22.22 0 0 0 0 .26.68.68 0 0 0 .62.33.39.39 0 0 0 .26-.14Z" transform="translate(-143.73 -155.32)"/><path class="cls-49" d="m830.25 600.54 4.26-6.47-.89-.45-4.25 6.46a.26.26 0 0 0 0 .27.68.68 0 0 0 .63.32.31.31 0 0 0 .25-.13Z" transform="translate(-143.73 -155.32)"/><path class="cls-48" d="M830.61 601.16a1.16 1.16 0 0 1-1.47.17c-.56-.29-.81-.83-.56-1.21a1.17 1.17 0 0 1 1.47-.18c.56.29.81.83.56 1.22Z" transform="translate(-143.73 -155.32)"/><path class="cls-49" d="M834.25 594.2a.69.69 0 0 1-.63-.31c-.1-.2 0-.38.27-.4a.67.67 0 0 1 .62.32c.1.19-.01.37-.26.39Z" transform="translate(-143.73 -155.32)"/><path class="cls-45" d="M828.72 592.65a2.83 2.83 0 0 0-2.94 1.2c-.86 1.45 0 2.27 1 2.38Z" transform="translate(-143.73 -155.32)"/><path class="cls-47" d="M826.74 596.23c1 .1 2.25-.47 3.44-.39.37 0 1.5-1.12 1.5-1.12s.18-.65-.15-1a24 24 0 0 1-2.81-1.1 3.46 3.46 0 0 0-2.16 1.52 2 2 0 0 0 .18 2.09Z" transform="translate(-143.73 -155.32)"/><path class="cls-50" d="M830.3 595.89a2 2 0 0 1 1.23-2.14c.37-.13 1.71-1.52 2.3-1.46a1.74 1.74 0 0 1 1.57 1.81c0 .94-1.93 2.27-1.93 2.27l-2 .12Z" transform="translate(-143.73 -155.32)"/><path class="cls-51" d="M841.48 588.93a6.52 6.52 0 0 0-.42 1.62c-.09.83.43 1 .43 1l.57-2.07.12-.62Z" transform="translate(-143.73 -155.32)"/><path class="cls-47" d="M848.85 590a40 40 0 0 1-1.63 4.78 2 2 0 0 1-2.12.7 5 5 0 0 1-2.88-3.46c-.89.43-1.43-2.21-.35-2.45a.46.46 0 0 0 .22-.45l2.22-1.2 4.37.52Z" transform="translate(-143.73 -155.32)"/><path class="cls-51" d="M842.34 589.61a4 4 0 0 0 .46 2.06 4.87 4.87 0 0 1 .52-2.06Z" transform="translate(-143.73 -155.32)"/><path class="cls-43" d="M848.14 589.79a1.92 1.92 0 0 0-.81-2c.08-.27-1.51-2-1.51-2l-.43 2.19a2.8 2.8 0 0 0 1 2.69 1.13 1.13 0 0 0 .74.2v.13l.34-.17a1.32 1.32 0 0 0 .67-1.04Zm-1.42-.07a.31.31 0 0 1-.12-.05.73.73 0 0 1-.28-.72.39.39 0 0 1 .07-.16.21.21 0 0 1 .12.05.73.73 0 0 1 .28.72.39.39 0 0 1-.07.16Z" transform="translate(-143.73 -155.32)"/><path class="cls-52" d="M847 588c.07-.27-1.52-2-1.52-2l-.42 2.2a2.77 2.77 0 0 0 1 2.68c.76.5 1.53.1 1.72-.89A1.94 1.94 0 0 0 847 588Zm-.32 1.76a.31.31 0 0 1-.12-.05.73.73 0 0 1-.28-.72.39.39 0 0 1 .07-.16.21.21 0 0 1 .12.05.73.73 0 0 1 .28.72.39.39 0 0 1-.03.12Z" transform="translate(-143.73 -155.32)"/><path d="M846.72 589.72a.26.26 0 0 1-.39.08.75.75 0 0 1-.28-.72c0-.21.18-.32.34-.29a.39.39 0 0 0-.07.16.73.73 0 0 0 .28.72.31.31 0 0 0 .12.05Z" transform="translate(-143.73 -155.32)"/><path class="cls-52" d="M843.57 592.16a1.94 1.94 0 0 0-.81-2c.08-.27-1.51-2-1.51-2l-.43 2.19a2.8 2.8 0 0 0 1 2.69 1.13 1.13 0 0 0 .74.2v.07l.34-.17a1.39 1.39 0 0 0 .67-.98Zm-1.42-.07a.21.21 0 0 1-.15-.09.73.73 0 0 1-.28-.72.59.59 0 0 1 .06-.16.29.29 0 0 1 .13.05.73.73 0 0 1 .28.72.39.39 0 0 1-.04.2Z" transform="translate(-143.73 -155.32)"/><path class="cls-43" d="M842.47 590.33c.07-.27-1.52-2-1.52-2l-.42 2.19a2.77 2.77 0 0 0 1 2.69c.77.49 1.54.09 1.73-.9a1.94 1.94 0 0 0-.79-1.98Zm-.32 1.76a.21.21 0 0 1-.15-.09.73.73 0 0 1-.28-.72.59.59 0 0 1 .06-.16.29.29 0 0 1 .13.05.73.73 0 0 1 .28.72.39.39 0 0 1-.04.2Z" transform="translate(-143.73 -155.32)"/><path class="cls-52" d="M842.15 592.09a.26.26 0 0 1-.39.08.73.73 0 0 1-.28-.72c0-.21.18-.32.33-.29a.59.59 0 0 0-.06.16.73.73 0 0 0 .28.72.21.21 0 0 0 .12.05ZM850.24 589.5l.07-.35h-.22l-.86-1.11-7.23 2.07a11.61 11.61 0 0 0 3.78 1.44 4.35 4.35 0 0 0 2.75-.68c1.24-.64 1.67-1.09 1.71-1.37Z" transform="translate(-143.73 -155.32)"/><path class="cls-43" d="M842 590.11a15.53 15.53 0 0 0 3.83 1.17 4.24 4.24 0 0 0 2.75-.67c1.59-.82 1.87-1.41 1.68-1.68s-1-1.09-1-1.09Z" transform="translate(-143.73 -155.32)"/><path class="cls-43" d="M847.64 590a6.45 6.45 0 0 1-5.81 0c-1.42-.93-1.13-2.43.65-3.36a6.82 6.82 0 0 1 3-.7 5.26 5.26 0 0 1 2.78.7c1.46.94 1.17 2.44-.62 3.36Z" transform="translate(-143.73 -155.32)"/><path class="cls-43" d="M845.89 584.05a4.81 4.81 0 0 0-4.94 4.28h8.22s1.24-4.28-3.28-4.28Z" transform="translate(-143.73 -155.32)"/><path class="cls-52" d="M849.27 587.85c-1.6 2.48-6.51 2.33-6.51 2.33s4.24-.34 6.51-2.33Z" transform="translate(-143.73 -155.32)"/><path class="cls-5" d="M841.51 587.2a4.77 4.77 0 0 1 4.87-2.84 6.67 6.67 0 0 0-4.87 2.84Z" transform="translate(-143.73 -155.32)"/><path class="cls-53" d="M843.11 600.27a2.87 2.87 0 0 0-.55 3.18 2.42 2.42 0 0 0 3.14 1.79l.87-1.34.28-2.77-2.21-1.29Z" transform="translate(-143.73 -155.32)"/><path class="cls-45" d="M843.81 600a8 8 0 0 0-.95.84 4.92 4.92 0 0 0-1.66-.54c-1.75.92-2 3.65-2 3.65s2.68 1.53 4.13 1.42c.77-.07 2.56-1.82 2.56-1.82l1.39-1.22-.28-2.11-2-.8Z" transform="translate(-143.73 -155.32)"/><path class="cls-5" d="M852.57 594.87c-1.18-.94-3.43 1-4.68 1.88s-4.28 3.13-4.78 3.52c3.93-.6 2.59 5 2.59 5l5.77-5.36s3.37-3.24 1.1-5.04Z" transform="translate(-143.73 -155.32)"/><path class="cls-43" d="M846.78 604.24s.28-2.94-1.06-4.1a2.09 2.09 0 0 0-1.88-.42 2.78 2.78 0 0 1 .4-.29 2.12 2.12 0 0 1 1.69.49c1.18 1 1.18 3.23 1.14 4.05a.94.94 0 0 1-.29.27Z" transform="translate(-143.73 -155.32)"/><path class="cls-49" d="M829.43 596.23a3.84 3.84 0 0 1 2.16-1.05 2.79 2.79 0 0 1 1.25.79 1.91 1.91 0 0 1 1.31.38 2.92 2.92 0 0 1 .72 1.66 2.54 2.54 0 0 0-1.35 2.29 4.7 4.7 0 0 1-3.09-1c-.34-.13-.76.17-1 .19a.45.45 0 0 1-.51-.39 7.89 7.89 0 0 1 .51-2.87Z" transform="translate(-143.73 -155.32)"/><path class="cls-5" d="M617.27 506.68h216v7h-216z"/><path fill="#cacacc" d="M606.27 506.68h114v7h-114z"/></g><g id="Layer_19" data-name="Layer 19"><path d="M795.5 781.5s-3 10-4 11a3.1 3.1 0 0 0-1 2l9 1 3-2 1-11Z" transform="translate(-143.73 -155.32)" fill="#eaa092"/><path fill="#de9d97" d="m604.77 625.18-1 6-3 7h-9.91l4.91-13h9z"/><path d="M797.5 792.5h-7.79s-1.21 1-1.21 4v4.71h4l1-2.71 3 2.71h19.7s.35-2.71-.65-3.71c0 0-5.82-5-10.41-5Z" transform="translate(-143.73 -155.32)" fill="#ec7167"/><path d="m732.5 792-2 3.52s-2 4-1 5l-.28 1.29h4.37l.91-2.29 3.58 2.29 19.42-.29s1-2 0-3c0 0-4-5-6-5l-9-4Z" transform="translate(-143.73 -155.32)" fill="#e77360"/><path d="m777.5 575.5 2.82 6.12a4.35 4.35 0 0 0-.82 2.88 4.79 4.79 0 0 0 .82 3l.18 2s-1 6.9-1.5 7-1.85 3-2.67 4-2.83 1-2.83 1l-1 5v3.58H758l-2.54-1.58 3-2a4.38 4.38 0 0 0 1-3c0-2-2-7-2-7Z" transform="translate(-143.73 -155.32)" fill="#e59b8c"/><path d="M759.5 599.5s-2.91 1-4 0a3.58 3.58 0 0 1-1-3c0-1 0-4-1-5s-4-2-4-4-2-4-2-5-1-5 1-6a7.47 7.47 0 0 0 3-3 3.1 3.1 0 0 1 1.88-3.15c2.12-.85 2.12-2.85 4.12-3.85s5-2 6-3 3.36-1 4.68 0 2.32 3 3.32 3h6c1 0 3 2 3 2s2 2 1 4a12.38 12.38 0 0 1-2 3v4l-2 5s-2 7-4 9-1.64 5.89-4.82 6.44a33.07 33.07 0 0 1-6.18.56 10.07 10.07 0 0 1-3-1Z" transform="translate(-143.73 -155.32)" fill="#02083e"/><path d="M764.51 693.22s34-1.72 49 4.28c0 0 13 4 15 8 0 0 6 7-1 20l-17 53s-3 7-7 7c0 0-4-2-7-1a36.9 36.9 0 0 1-6 1s-3 2-3-5c0 0 2-9 1-14 0 0 0-10 3-11a7.94 7.94 0 0 0 4-7s-5.42-6.24-3.21-9.12c0 0 5.62-6.62 5.41-8.75l-.2-2.13-9-6-6 6-25 51s-.9 3.53-5.45 6.26c0 0-3.55-.26-3.55-1.26s-5-3-6-2-5 7-7 0l-3-8.47 16-45.53 2-32Z" transform="translate(-143.73 -155.32)" fill="#70729b"/><path d="M732.5 620.5s8-10 11-10c0 0 2.5-2.16 3.75-2.08a65.16 65.16 0 0 1 8.25-1.66c3-.26 19 .74 20 1.74 0 0 9 4 10 10 0 0 4 15 6 17 0 0 7 9 17 11 0 0 21 4 30 4 0 0 3 4.26 0 10.63l-3 3.37s-23-4-24-5c0 0-18 1-24-5 0 0-8-5-8-8 0 0-10 4-10 11 0 0 3 24 1 29 0 0-2 14-13 22 0 0-8 2-11 3s-14-91-14-91Z" transform="translate(-143.73 -155.32)" fill="#fdfefb"/><path d="M836.5 654.5s7 0 8 1l1 1a22.69 22.69 0 0 0 4 1s1 0 1 2v2.29h-14.37Z" transform="translate(-143.73 -155.32)" fill="#e2a295"/></g><g id="Layer_18" data-name="Layer 18"><path class="cls-64" d="M591.27 595.68h5v43h-5z"/><path class="cls-64" transform="rotate(90 742.295 642.975)" d="M735 754h3v77h-3z"/><rect class="cls-65" x="587.27" y="574.68" width="14" height="43" rx="2.04"/><path d="M749.2 727h-45.84a9.76 9.76 0 0 1-9.48-8.58l-9.76-92.84a7.58 7.58 0 0 1 7.68-8.58h45.84a9.76 9.76 0 0 1 9.48 8.58l9.76 92.84a7.58 7.58 0 0 1-7.68 8.58Z" transform="translate(-143.73 -155.32)" fill="#f6e48c"/><path class="cls-67" d="M738.2 727h-45.84a9.76 9.76 0 0 1-9.48-8.58l-9.76-92.84a7.58 7.58 0 0 1 7.68-8.58h45.84a9.76 9.76 0 0 1 9.48 8.58l9.76 92.84a7.58 7.58 0 0 1-7.68 8.58Z" transform="translate(-143.73 -155.32)"/><rect class="cls-67" x="576.27" y="561.68" width="80" height="10" rx="4"/><rect class="cls-67" x="571.27" y="568.68" width="46" height="10" rx="4"/><rect class="cls-67" x="594.27" y="516.68" width="51" height="10" rx="4"/><circle class="cls-65" cx="554.27" cy="643.68" r="5"/><circle class="cls-65" cx="633.27" cy="643.68" r="5"/></g><g id="Layer_12" data-name="Layer 12"><rect x="542.27" y="203.68" width="238" height="187" rx="6.5" fill="#303030"/><path class="cls-69" d="M549.27 380.68h224M549.27 374.18h11.5"/><circle class="cls-5" cx="578.27" cy="380.68" r="2"/><path class="cls-69" d="M549.27 371.18h11.5M549.27 368.18h11.5"/><path stroke="#ccc" stroke-width="4" stroke-miterlimit="10" fill="none" d="M549.27 363.68h5"/></g><g id="Layer_11" data-name="Layer 11"><path class="cls-71" d="M900.67 465a42.77 42.77 0 0 0-1.74-8.08 45.69 45.69 0 0 0-3.62-8.3A52.22 52.22 0 0 0 891 442a60.65 60.65 0 0 0-5.87-6.56 71.71 71.71 0 0 0-6.3-5.45 87.42 87.42 0 0 0-8.23-5.64q-3.84-2.33-8.08-4.42-4.68-2.29-9.81-4.29a142.44 142.44 0 0 0-9.86-3.39c-4-1.21-8.13-2.29-12.41-3.22q-5.8-1.28-12-2.19c-4.68-.7-9.51-1.24-14.46-1.6q-7.2-.54-14.73-.59c-3.59 0-7.22 0-10.91.19l-7.84.25-16.67.54-20.43.66-1.49 12-1.22 9.79-1.39 11.19-1.22 9.79-1.33 10.72-1.22 9.79-1.39 11.19-1.22 9.79-.66 5.28a7.35 7.35 0 0 0 .9 4.54 13.09 13.09 0 0 0 6.53 5.31 30.79 30.79 0 0 0 13.31 2.16h1.05l17-.7 18.57-.77 17-.71 19.38-.8 17-.7 18.57-.77 17-.71 19.38-.8 9.38-.39.71-5.44 1.49-11.24 1.22-9.3c0-.18 0-.35.06-.53a43.55 43.55 0 0 0-.14-9.98Z" transform="translate(-143.73 -155.32)"/><path class="cls-72" d="M897.2 497.92v3.53l3.55-27.18s.39-5.75.2-8.9-6.5 4.28-6.5 4.28Z" transform="translate(-143.73 -155.32)"/><path class="cls-71" d="M578.48 337.85h1.93v3.69h-1.93z"/><path class="cls-73" d="m778.35 401.34-7.84.25-39.81 23-1.39 11.19 60-34.61c-3.64-.04-7.31.02-10.96.17ZM870.57 420.85 729.7 502.18a31.09 31.09 0 0 0 13.3 2.13h1.05l134.75-77.83a89.29 89.29 0 0 0-8.23-5.63ZM885.1 431.93 761 503.56l18.57-.77L891 438.5a61.7 61.7 0 0 0-5.9-6.57ZM895.31 445.08l-98.74 57 19.38-.8 83-47.91a45.69 45.69 0 0 0-3.64-8.29ZM852.68 412.14l-129.75 74.91-.66 5.28a7.32 7.32 0 0 0 .9 4.53l139.32-80.43c-3.12-1.53-6.39-2.97-9.81-4.29ZM804 401.73l-75.9 43.82-1.33 10.73 91.69-52.94c-4.69-.7-9.52-1.24-14.46-1.61ZM830.41 405.52l-104.87 60.55-1.39 11.19 118.67-68.52c-3.98-1.21-8.13-2.28-12.41-3.22Z" transform="translate(-143.73 -155.32)"/><path class="cls-73" d="m755.66 325.91-30.95 17.88 19.38-.81 10.09-5.82 1.48-11.25zM589.68 247.46l-1.5 12 21.92-12.66-20.42.66z"/><path class="cls-73" d="m900.67 461.46-67.76 39.12 18.57-.77 49.2-28.4a43.55 43.55 0 0 0-.01-9.95Z" transform="translate(-143.73 -155.32)"/><path class="cls-73" d="m610.1 246.8-21.92 12.66-1.21 9.79 39.8-22.98-16.67.53z"/><path class="cls-74" d="m610.1 246.8-21.92 12.66-1.21 9.79 39.8-22.98-16.67.53z"/><path class="cls-73" d="m789.26 401.15-60 34.61-1.22 9.79L804 401.73q-7.21-.52-14.74-.58Z" transform="translate(-143.73 -155.32)"/><path class="cls-74" d="m789.26 401.15-60 34.61-1.22 9.79L804 401.73q-7.21-.52-14.74-.58Z" transform="translate(-143.73 -155.32)"/><path class="cls-73" d="m818.45 403.34-91.69 52.94-1.22 9.79 104.87-60.55q-5.8-1.26-11.96-2.18Z" transform="translate(-143.73 -155.32)"/><path class="cls-74" d="m818.45 403.34-91.69 52.94-1.22 9.79 104.87-60.55q-5.8-1.26-11.96-2.18Z" transform="translate(-143.73 -155.32)"/><path class="cls-73" d="m842.82 408.74-118.67 68.52-1.22 9.79 129.75-74.91q-4.75-1.84-9.86-3.4Z" transform="translate(-143.73 -155.32)"/><path class="cls-74" d="m842.82 408.74-118.67 68.52-1.22 9.79 129.75-74.91q-4.75-1.84-9.86-3.4Z" transform="translate(-143.73 -155.32)"/><path class="cls-73" d="m862.49 416.43-139.32 80.43a13.1 13.1 0 0 0 6.53 5.32l140.87-81.33q-3.84-2.32-8.08-4.42Z" transform="translate(-143.73 -155.32)"/><path class="cls-74" d="m862.49 416.43-139.32 80.43a13.1 13.1 0 0 0 6.53 5.32l140.87-81.33q-3.84-2.32-8.08-4.42Z" transform="translate(-143.73 -155.32)"/><path class="cls-73" d="m878.8 426.48-134.72 77.79 17-.71 124.02-71.63a75.22 75.22 0 0 0-6.3-5.45Z" transform="translate(-143.73 -155.32)"/><path class="cls-74" d="m878.8 426.48-134.72 77.79 17-.71 124.02-71.63a75.22 75.22 0 0 0-6.3-5.45Z" transform="translate(-143.73 -155.32)"/><path class="cls-73" d="m891 438.5-111.39 64.29 17-.7 98.74-57a52.22 52.22 0 0 0-4.35-6.59Z" transform="translate(-143.73 -155.32)"/><path class="cls-74" d="m891 438.5-111.39 64.29 17-.7 98.74-57a52.22 52.22 0 0 0-4.35-6.59Z" transform="translate(-143.73 -155.32)"/><path class="cls-73" d="m898.93 453.38-83 47.91 17-.71 67.76-39.12a42.77 42.77 0 0 0-1.76-8.08Z" transform="translate(-143.73 -155.32)"/><path class="cls-74" d="m898.93 453.38-83 47.91 17-.71 67.76-39.12a42.77 42.77 0 0 0-1.76-8.08Z" transform="translate(-143.73 -155.32)"/><path class="cls-73" d="M900.62 471.93c0-.17 0-.35.06-.52l-49.2 28.4 17-.7 31-17.87Z" transform="translate(-143.73 -155.32)"/><path class="cls-74" d="M900.62 471.93c0-.17 0-.35.06-.52l-49.2 28.4 17-.7 31-17.87Z" transform="translate(-143.73 -155.32)"/><path class="cls-73" d="m754.18 337.16-10.09 5.82 9.37-.39.72-5.43z"/><path class="cls-74" d="m754.18 337.16-10.09 5.82 9.37-.39.72-5.43z"/><path class="cls-75" d="m750.46 496.72 80-3.32 1.87-14.19c2.85-22.93-27-40.19-66.76-38.54l-24.54.79-5.78 46.46c-.67 5.24 6.15 9.17 15.21 8.8Z" transform="translate(-143.73 -155.32)"/><g clip-path="url(#clip-path)"><path d="M789.9 491.31 749.25 493c-4.64.19-8.14-1.83-7.81-4.51l2.92-23.49c.33-2.68 4.37-5 9-5.21l40.64-1.66c4.65-.19 8.15 1.82 7.81 4.51l-2.92 23.46c-.31 2.69-4.35 5.02-8.99 5.21Z" transform="translate(-143.73 -155.32)" fill="#8ab21d"/><g class="cls-78"><path class="cls-72" d="m580.49 324.17-3.94-2.28 53.98-31.16 3.93 2.27-53.97 31.17zM589.36 329.29l-3.93-2.27 53.97-31.17 3.94 2.28-53.98 31.16zM598.22 334.4l-3.94-2.27 53.98-31.16 3.93 2.27-53.97 31.16zM607.09 339.53l-3.93-2.28 53.97-31.16 3.94 2.27-53.98 31.17zM615.81 344.56l-3.94-2.27 53.98-31.17 3.93 2.27-53.97 31.17zM624.66 349.67l-3.93-2.27 53.98-31.16 3.93 2.27-53.98 31.16z"/></g><g class="cls-78"><path class="cls-72" d="m627.73 347.11-4.54 2.62-46.75-26.99 4.55-2.62 46.74 26.99zM637.98 341.19l-4.54 2.62-46.75-26.98 4.55-2.63 46.74 26.99zM648.21 335.29l-4.55 2.62-46.74-26.99 4.54-2.62 46.75 26.99zM658.46 329.37l-4.55 2.62L607.17 305l4.54-2.62 46.75 26.99zM668.52 323.56l-4.54 2.62-46.75-26.98 4.54-2.63 46.75 26.99zM678.75 317.66l-4.55 2.62-46.74-26.99 4.54-2.62 46.75 26.99z"/></g></g><path class="cls-75" d="M749.46 495.86c-4.14 2.39-10.4 2.65-14 .58s-3.13-5.68 1-8.07 10.4-2.65 14-.58 3.14 5.68-1 8.07ZM775.42 477.75c-2.41 1.39-6.06 1.54-8.15.34s-1.83-3.32.58-4.71 6.07-1.55 8.16-.34 1.83 3.31-.59 4.71ZM803.33 461.64c-2.42 1.39-6.07 1.54-8.16.33s-1.83-3.31.59-4.7 6.06-1.55 8.15-.34 1.83 3.31-.58 4.71ZM751.05 463.67c-2.42 1.4-6.07 1.55-8.16.34s-1.83-3.31.59-4.71 6.06-1.54 8.15-.33 1.83 3.31-.58 4.7ZM800.14 492c-2.41 1.39-6.06 1.54-8.15.34s-1.83-3.32.58-4.71 6.07-1.55 8.16-.34 1.83 3.34-.59 4.71Z" transform="translate(-143.73 -155.32)"/><path class="cls-5" d="M748.55 462.23a3.06 3.06 0 0 1-2.77.12c-.71-.41-.63-1.13.2-1.6a3.06 3.06 0 0 1 2.77-.12c.71.37.62 1.13-.2 1.6ZM797.65 490.58a3.11 3.11 0 0 1-2.78.11c-.71-.41-.62-1.12.2-1.6a3.11 3.11 0 0 1 2.78-.11c.71.41.62 1.12-.2 1.6ZM800.83 460.19a3.06 3.06 0 0 1-2.77.12c-.71-.41-.63-1.13.2-1.6a3.06 3.06 0 0 1 2.77-.12c.71.41.62 1.13-.2 1.6Z" transform="translate(-143.73 -155.32)"/><path class="cls-75" d="m600.5 337.52-2.53-1.46 28.67-16.55 2.53 1.46-28.67 16.55z"/><path class="cls-5" d="M898.58 487.44 739.65 494l11.42-91.81h-1.05l-11.49 92.43 160-6.63c-.01-.14.01-.34.05-.55Z" transform="translate(-143.73 -155.32)"/><path class="cls-79" d="M837.55 461.29c-2.2 2.36-8.13.42-13.25-4.35s-7.47-10.55-5.3-12.94 8.13-.42 13.24 4.35 7.51 10.58 5.31 12.94Z" transform="translate(-143.73 -155.32)"/><path class="cls-42" d="m671.21 246.75 1.53.29-.17 1.69-.08 1.72-.26.37-2.33-.44-.71-.63.16-1.96 1.86-1.04z"/><path class="cls-5" d="M824.12 402c-3.12-.43-4.3.08-8.08.19-1 1.86-.09 5.22-.09 5.22a16.2 16.2 0 0 1 6.66.85c.31.21 2.64-2.8 2.64-2.8s.28-3.27-1.13-3.46Z" transform="translate(-143.73 -155.32)"/><path class="cls-43" d="M816.62 407.43c0-.08-1-1.9-.2-5.24h.29a8.38 8.38 0 0 0 .16 5.12Z" transform="translate(-143.73 -155.32)"/><path class="cls-44" d="m683.9 245.51.01.61-.53.95-.33 1.45.67 1.64.96 1.16 1.61.07 1.81-.88.42-1.29-.68-2.3-1.57-1.83h-1.73l-.64.42z"/><path class="cls-45" d="M827.34 403.4c0 .27.65 2.4 2.32 2.4s2.17-2 2.17-2l2.28.62-.81 2.14-3.16 1.31-2.46-.43s-1.66-2.32-1.71-2.49-.25-2.56-.27-2.61 1.74-.89 1.74-.89h.2a5.66 5.66 0 0 0-.3 1.95Z" transform="translate(-143.73 -155.32)"/><path class="cls-50" d="M834.48 454.81c0 1.55-.38 3.36-.5 4.43-.07.72.07 1.36.34 1.4 2.57.32 3.28-.86 3.42-1.75a13.9 13.9 0 0 0-.26-3.05s-.17-1.13-.59-1.34a5 5 0 0 0-2.41.31Z" transform="translate(-143.73 -155.32)"/><path class="cls-45" d="M833.47 449.07a42.88 42.88 0 0 1 1 5.74c.12 1.18 2.42 1 2.41-.31 0-.82-.25-3.33-.16-5.84-.21-.63-1.81-.47-1.81-.47s-1.3.33-1.44.88Z" transform="translate(-143.73 -155.32)"/><path class="cls-50" d="M822.75 444.19c-.74.88-4.37 3.33-4.57 3.65a1.5 1.5 0 0 0 .08 1.28c2.13.54 4.58-1.57 5-1.67s2.63-.12 3-1a6.15 6.15 0 0 0-.17-2.39s-2.64.09-3.34.13Z" transform="translate(-143.73 -155.32)"/><path class="cls-45" d="M822.25 440.76a8.91 8.91 0 0 1 .5 3.43c1 1.52 3.27.61 3.29-.11a27 27 0 0 0 0-3.12c-.25-.84-1.65-1.11-1.65-1.11s-1.79.37-2.14.91Z" transform="translate(-143.73 -155.32)"/><path class="cls-5" d="M824.86 417.85c-3.42 6.2-2.86 16.83-2.86 16.83s-1 3.9-.49 5.12c1 2.28 4.56 1.94 5.29.34s-.18-3.9-.43-4.4a63.57 63.57 0 0 0 3.27-9.07 1.64 1.64 0 0 0 1.1.1c-.09 6.24.51 15.2 1 15.91 1 1.55.47 4.07.74 5.25.53 2.23 4.87 1.6 5.19-.78a8.48 8.48 0 0 0-1.17-5.53c-.56-.56 3-13.81-.35-23.79-.51-.62-9.6.4-11.29.02Z" transform="translate(-143.73 -155.32)"/><path class="cls-43" d="M837.21 448.21c-.08-3.08-.55-4.26-.94-5a4 4 0 0 1-.54-1.63 19.76 19.76 0 0 1 .27-3.37c.51-4.41 1.49-12.55-.26-19.95l.25-.2c1.76 7.45.8 15.76.29 20.18a21.75 21.75 0 0 0-.27 3.31 3.87 3.87 0 0 0 .51 1.53c.41.79.86 1.65.94 4.8a1.08 1.08 0 0 1-.1.19.33.33 0 0 1-.15.14Z" transform="translate(-143.73 -155.32)"/><path class="cls-46" d="m687.01 271.44 3.62-2.46-3.63 3.12.01-.66zM685.91 271.35l-2.8-2.96 2.61 3.63.19-.67z"/><path class="cls-42" d="M824.86 416.16v1.69c3.16 2.92 11.73 1 11.29-.24-.06-.23-.49-1.72-.49-1.72Z" transform="translate(-143.73 -155.32)"/><path class="cls-5" d="M832.88 401.85s.18-.05-.14 2a3.29 3.29 0 0 1-3.36 2.87 3.69 3.69 0 0 1-2.6-3.15 3.46 3.46 0 0 1 .66-2.12 25.17 25.17 0 0 1-3.32.58c-3.06 1-1.48 7.28-1.48 7.28s2.08 4.78 2.22 6.86c.39 1.69 10.67 2 10.8-.27.13-1.25 1.58-3.5 2.14-5.12.33-1 1-6.7 1-6.7Z" transform="translate(-143.73 -155.32)"/><path class="cls-43" d="M829.66 417.52h-.29a21 21 0 0 0-.45-4.56 11.75 11.75 0 0 1-.1-5c0-.2-.35-.39-.8-.62a3.64 3.64 0 0 1-2.48-3 3.77 3.77 0 0 1 .73-2.63c.07-.09.43-.09.43-.09a3.76 3.76 0 0 0-.88 2.7 3.37 3.37 0 0 0 2.33 2.76c.57.29 1 .51 1 .92a11.18 11.18 0 0 0 .1 4.92 22 22 0 0 1 .41 4.6ZM830.64 417.53h-.28a20.85 20.85 0 0 0-.26-5.42 8 8 0 0 1 .14-4.28c.12-.33.61-.54 1.23-.8a4.06 4.06 0 0 0 2.5-1.94 3 3 0 0 0 0-2.68l.23-.15a3.21 3.21 0 0 1 0 2.93 4.37 4.37 0 0 1-2.66 2.1c-.51.22-1 .42-1.07.63a7.82 7.82 0 0 0-.13 4.15 20.84 20.84 0 0 1 .3 5.46Z" transform="translate(-143.73 -155.32)"/><path class="cls-46" d="M831 409.81a13.84 13.84 0 0 1 5.47-4.69 26.77 26.77 0 0 1-2.34 3.1Z" transform="translate(-143.73 -155.32)"/><path class="cls-47" d="M822.23 407.51c2.18 1.2 4.63 1.49 6.88 2.36.28.14-.08 2.87-.08 2.87s-.76.89-1.26.83c-2.16-.88-4.69-3.08-6.46-3.73-.07-.28-.76-.43-.22-1.59s.66-.75 1.14-.74Z" transform="translate(-143.73 -155.32)"/><path class="cls-48" d="M831.17 384.28a1.58 1.58 0 0 0-2.86-1.33l-8.21 20.12a.26.26 0 0 0 0 .27.84.84 0 0 0 .69.32.27.27 0 0 0 .24-.13Z" transform="translate(-143.73 -155.32)"/><path class="cls-49" d="m818.05 410.08 3-6.56-1-.46-3 6.56a.28.28 0 0 0 .05.27.83.83 0 0 0 .7.32.27.27 0 0 0 .25-.13Z" transform="translate(-143.73 -155.32)"/><path class="cls-48" d="M818.53 410.71c-.18.38-.83.46-1.46.17s-1-.84-.8-1.22.83-.47 1.46-.18.98.84.8 1.23Z" transform="translate(-143.73 -155.32)"/><path class="cls-49" d="M820.86 403.65a.82.82 0 0 1-.7-.32c-.14-.2-.06-.38.19-.4a.84.84 0 0 1 .69.32c.14.2.06.38-.18.4Z" transform="translate(-143.73 -155.32)"/><path class="cls-45" d="M814.94 402.08c-.29-.09-2.16-.26-2.75 1.21a1.66 1.66 0 0 0 1.45 2.42Z" transform="translate(-143.73 -155.32)"/><path class="cls-47" d="M813.64 405.71c1 .1 2.18-.48 3.41-.4.37 0 1.29-1.13 1.29-1.13a1.29 1.29 0 0 0-.33-1 29 29 0 0 1-3.07-1.11s-1.55.35-1.9 1.53a2.26 2.26 0 0 0 .6 2.11Z" transform="translate(-143.73 -155.32)"/><path class="cls-50" d="M817.18 405.36a1.69 1.69 0 0 1 .83-2.17c.34-.13 1.43-1.54 2-1.48a2.25 2.25 0 0 1 2 1.83c.14 1-1.51 2.31-1.51 2.31l-2 .12Z" transform="translate(-143.73 -155.32)"/><path class="cls-51" d="M827.15 398.3a6.14 6.14 0 0 0-.11 1.64 1.17 1.17 0 0 0 .64 1.06l.17-2.11v-.63Z" transform="translate(-143.73 -155.32)"/><path class="cls-47" d="M834.83 399.35a36.41 36.41 0 0 1-.71 4.85 1.76 1.76 0 0 1-2 .71 6.56 6.56 0 0 1-3.59-3.51c-.83.43-1.9-2.25-.85-2.49.24-.14.14-.46.14-.46l2-1.21 4.54.53Z" transform="translate(-143.73 -155.32)"/><path class="cls-51" d="M828.15 399a4.71 4.71 0 0 0 .88 2.09 4.4 4.4 0 0 1 .12-2.09Z" transform="translate(-143.73 -155.32)"/><path class="cls-43" d="M834.08 399.18a2.38 2.38 0 0 0-1.22-2c0-.27-1.93-2-1.93-2v2.23a3.48 3.48 0 0 0 1.58 2.72 1.27 1.27 0 0 0 .79.21v.07l.32-.18a1.11 1.11 0 0 0 .46-1.05Zm-1.45-.07a.42.42 0 0 1-.14-.06.9.9 0 0 1-.42-.73.38.38 0 0 1 0-.16.3.3 0 0 1 .14 0 .93.93 0 0 1 .42.73.47.47 0 0 1 0 .22Z" transform="translate(-143.73 -155.32)"/><path class="cls-52" d="M832.6 397.31c0-.27-1.93-2-1.93-2v2.23a3.46 3.46 0 0 0 1.57 2.72c.87.51 1.57.1 1.57-.9a2.39 2.39 0 0 0-1.21-2.05Zm0 1.8a.42.42 0 0 1-.14-.06.9.9 0 0 1-.42-.73.38.38 0 0 1 0-.16.3.3 0 0 1 .14 0 .93.93 0 0 1 .42.73.47.47 0 0 1 .03.22Z" transform="translate(-143.73 -155.32)"/><path d="M832.63 399.11c-.06.14-.21.17-.39.07a.93.93 0 0 1-.42-.73c0-.21.12-.32.28-.29a.38.38 0 0 0 0 .16.9.9 0 0 0 .42.73.42.42 0 0 0 .11.06Z" transform="translate(-143.73 -155.32)"/><path class="cls-52" d="M829.91 401.58a2.37 2.37 0 0 0-1.22-2c0-.27-1.93-2-1.93-2v2.23a3.48 3.48 0 0 0 1.58 2.72 1.34 1.34 0 0 0 .79.21v.07l.32-.18a1.13 1.13 0 0 0 .46-1.05Zm-1.45-.07a.27.27 0 0 1-.14-.05.9.9 0 0 1-.42-.73.47.47 0 0 1 0-.17l.14.06a.93.93 0 0 1 .42.72.4.4 0 0 1 0 .17Z" transform="translate(-143.73 -155.32)"/><path class="cls-43" d="M828.43 399.72c0-.27-1.94-2-1.94-2v2.23a3.48 3.48 0 0 0 1.58 2.72c.87.5 1.57.1 1.57-.91a2.38 2.38 0 0 0-1.21-2.04Zm0 1.79a.27.27 0 0 1-.14-.05.9.9 0 0 1-.42-.73.47.47 0 0 1 0-.17l.14.06a.93.93 0 0 1 .42.72.4.4 0 0 1 .03.17Z" transform="translate(-143.73 -155.32)"/><path class="cls-52" d="M828.46 401.51c-.07.14-.21.18-.39.08a.93.93 0 0 1-.42-.73c0-.21.12-.32.28-.3a.47.47 0 0 0 0 .17.9.9 0 0 0 .42.73.27.27 0 0 0 .11.05ZM836.15 398.88v-.35h-.23l-1.08-1.13-6.93 2.1A14.52 14.52 0 0 0 832 401a3.94 3.94 0 0 0 2.65-.69c1.17-.69 1.52-1.14 1.5-1.43Z" transform="translate(-143.73 -155.32)"/><path class="cls-43" d="M827.91 399.5a18.88 18.88 0 0 0 4.12 1.19 3.84 3.84 0 0 0 2.65-.68c1.46-.84 1.62-1.44 1.38-1.7s-1.22-1.11-1.22-1.11Z" transform="translate(-143.73 -155.32)"/><path class="cls-43" d="M833.61 399.39a6.5 6.5 0 0 1-5.89 0c-1.63-.94-1.63-2.46 0-3.4a6.46 6.46 0 0 1 5.89 0c1.63.94 1.63 2.46 0 3.4Z" transform="translate(-143.73 -155.32)"/><path class="cls-43" d="M830.67 393.35a3.89 3.89 0 0 0-4.18 4.34h8.34a3.88 3.88 0 0 0-4.16-4.34Z" transform="translate(-143.73 -155.32)"/><path class="cls-52" d="M834.84 397.2c-1.13 2.52-6.15 2.37-6.15 2.37s4.21-.35 6.15-2.37Z" transform="translate(-143.73 -155.32)"/><path class="cls-5" d="M826.84 396.54a3.83 3.83 0 0 1 4.37-2.88 5.24 5.24 0 0 0-4.37 2.88Z" transform="translate(-143.73 -155.32)"/><path class="cls-53" d="M831 409.81s-1.08 1.06.07 3.22c1.39 2.64 3.54 1.82 3.54 1.82l.62-1.36-.27-2.81-2.5-1.31Z" transform="translate(-143.73 -155.32)"/><path class="cls-45" d="M831.71 409.56a6.32 6.32 0 0 0-.81.85 5.92 5.92 0 0 0-1.79-.54c-1.59.93-1.34 3.7-1.34 3.7s3 1.55 4.47 1.44c.77-.07 2.24-1.84 2.24-1.84l1.18-1.24-.71-2.15-2.21-.8Z" transform="translate(-143.73 -155.32)"/><path class="cls-5" d="M839.57 404.33c-1.38-.95-3.29 1-4.37 1.91s-3.73 3.17-4.16 3.57c3.87-.61 3.61 5 3.61 5l4.8-5.44s2.78-3.22.12-5.04Z" transform="translate(-143.73 -155.32)"/><path class="cls-43" d="M835.55 413.83s-.3-3-1.88-4.16a2.39 2.39 0 0 0-2-.42 1.9 1.9 0 0 1 .33-.25 2.47 2.47 0 0 1 1.81.49c1.4 1 1.84 3.28 2 4.11a.79.79 0 0 1-.26.23Z" transform="translate(-143.73 -155.32)"/><path class="cls-49" d="M816.36 405.71a3.13 3.13 0 0 1 2-1.07 3.74 3.74 0 0 1 1.42.81 2.24 2.24 0 0 1 1.41.38 3.69 3.69 0 0 1 1.05 1.68 2.17 2.17 0 0 0-.92 2.33 5.5 5.5 0 0 1-3.32-1c-.37-.14-.74.17-1 .19a.59.59 0 0 1-.6-.4 7.79 7.79 0 0 1-.04-2.92Z" transform="translate(-143.73 -155.32)"/><path class="cls-79" d="M796.51 457.94c-5.65 3.26-14.83 3.26-20.48 0s-5.66-8.56 0-11.83 14.83-3.26 20.48 0 5.66 8.56 0 11.83Z" transform="translate(-143.73 -155.32)"/><path class="cls-52" d="M795.63 431.65a2.17 2.17 0 0 0 2.92-1.31 2.34 2.34 0 0 0-.34-2.47h-2.53l-1.06 1.75Z" transform="translate(-143.73 -155.32)"/><path class="cls-47" d="M798.21 427.87s1.67 1.89 2.1 2.3c2.24 0 4.69 1.18 6.77 1 .31 0 .29 2.09.29 2.09s-7.06 1.17-8.82-.76c-.3-.27-2.74-1.92-2.74-1.92l-.7-2.23 1-1.1Z" transform="translate(-143.73 -155.32)"/><path class="cls-43" d="M793.93 422.87s3.66 4.53 4.28 5c-2.17.45-2.58 3.78-2.58 3.78l-4-3.95-.78-4.2Z" transform="translate(-143.73 -155.32)"/><path class="cls-5" d="M795.14 431.18s-.24-.2-.24-.24c.35-3 2.21-3.68 2.61-3.79l.19.22s-2.23.55-2.56 3.81Z" transform="translate(-143.73 -155.32)"/><path class="cls-50" d="M790.23 446.22a1 1 0 0 0-.49.3c-1 1.1-.69 2.65.42 2.94 1.5.39 2.15-.18 2.87-.16s1.69.36 2.58.44 2.78.23 3.18-.23-.12-1.47-.75-1.78a5.39 5.39 0 0 0-1.29-.3l-4.26-1.29Z" transform="translate(-143.73 -155.32)"/><path class="cls-46" d="M791.72 445a9.42 9.42 0 0 0-1.49 1.2c-.24.25.15 1.53 1.76 1.46a4.16 4.16 0 0 0 2.43-.77Z" transform="translate(-143.73 -155.32)"/><path class="cls-5" d="m794.42 446.91 1.32-1 5.45-2 .55-1.2-4.39-1.34-2.45 1.63a.63.63 0 0 1-.48.26.58.58 0 0 0-.53.43l-.4.51H793a2.74 2.74 0 0 0-1.31.81c-.06.09-.17 1 1 1.61s1.73.29 1.73.29Z" transform="translate(-143.73 -155.32)"/><path class="cls-43" d="M793.13 446.83a22 22 0 0 1 2.08-1.34 20 20 0 0 0 3.19-2.19l.09.1a21.05 21.05 0 0 1-3.22 2.2 23 23 0 0 0-2 1.29s-.14-.06-.14-.06ZM791.77 445.64a1.05 1.05 0 0 1-.06-.21 5 5 0 0 1 1.89-1.15 16.34 16.34 0 0 0 2.33-1.24l.15.06a17.32 17.32 0 0 1-2.43 1.3c-.91.42-1.77.83-1.88 1.24ZM792.3 446.35s-.12-.07-.11-.1a5.79 5.79 0 0 1 2.35-1.59 16.23 16.23 0 0 0 2.56-1.48l.08.1a16.53 16.53 0 0 1-2.58 1.5c-1.12.56-2.07 1.02-2.3 1.57Z" transform="translate(-143.73 -155.32)"/><path class="cls-46" d="m795.21 442.92 4.91.48c-.24.67-4.91-.48-4.91-.48Z" transform="translate(-143.73 -155.32)"/><path class="cls-5" d="M789.69 434.79a34.37 34.37 0 0 1 11.18 4.86l1.24 1.68-2 2.07s-11.67-1.29-15.36-.93c-.46.17-1.86-1.24-1.86-1.24l.91-4.61 3-2.15a28.48 28.48 0 0 1 2.89.32Z" transform="translate(-143.73 -155.32)"/><path class="cls-43" d="M795.89 443c-.18-.71-9.33-1.85-12-1.26v-.13c2.5-.56 12 .42 12.18 1.41ZM801 440.27c-.07 0-6.7-4.47-12.34-5.07v-.12c5.66.59 12.32 5 12.39 5.08Z" transform="translate(-143.73 -155.32)"/><path class="cls-43" d="M801 441.36c-1.88-1.73-8.81-5-12.84-5.46v-.13c4.06.45 11 3.76 12.92 5.49Z" transform="translate(-143.73 -155.32)"/><path class="cls-43" d="M800.79 443.23h-.13c.26-2.66-9.37-5.88-13.22-6.31v-.13c3.9.43 13.61 3.71 13.35 6.44Z" transform="translate(-143.73 -155.32)"/><path class="cls-43" d="M799.69 443.36h-.14c.36-2.54-8.63-4.77-12.8-5.4v-.13c4.25.62 13.32 2.89 12.94 5.53Z" transform="translate(-143.73 -155.32)"/><path class="cls-43" d="M798.38 443.23c-.54-2-4.13-2.65-7.94-3.32-1.51-.27-3.07-.54-4.46-.92v-.12c1.39.37 2.94.65 4.45.91 3.85.68 7.53 1.36 8.09 3.47Z" transform="translate(-143.73 -155.32)"/><path class="cls-43" d="M797.15 443.11c-.72-1.29-3.61-1.7-7-2.21-1.59-.23-3.23-.48-4.9-.84v-.12c1.67.35 3.3.6 4.89.84 3.54.53 6.4 1 7.15 2.35Z" transform="translate(-143.73 -155.32)"/><path class="cls-50" d="M779.14 451.91a5.06 5.06 0 0 0-.64 1.52 15.63 15.63 0 0 0 .18 3.65 2.42 2.42 0 0 0 1.53 1.65 4.71 4.71 0 0 0 1.84-.21c.76-.33.6-1.44.6-1.44l-.85-2.35.24-.64-.88-2Z" transform="translate(-143.73 -155.32)"/><path class="cls-45" d="M779.73 453.31a2.1 2.1 0 0 0-.6.78c-.21.48-.33 2.66 0 2.94.7.59 1.41-.6 2.29-.65s1.16.91 1.34.65-.73-1.81-.79-3.72c-.58-.37-2.24 0-2.24 0Z" transform="translate(-143.73 -155.32)"/><path class="cls-42" d="m779.73 453.31 2.32.82a1.33 1.33 0 0 1-1.37.35c-1.1-.28-.95-1.17-.95-1.17Z" transform="translate(-143.73 -155.32)"/><path class="cls-46" d="m781.35 453.78-1.72-.68s-.89-.65-.42-1.29a4 4 0 0 1 .71-.78.53.53 0 0 0 .23-.11Z" transform="translate(-143.73 -155.32)"/><path class="cls-5" d="M780.15 450.92a2.41 2.41 0 0 0 .58-.53.22.22 0 0 1 .18-.13 1.54 1.54 0 0 0 .89-.74s-4.07-4.34-5-6.49a14.63 14.63 0 0 1-.67-6.26l5.35-.36 3.62 2.2-.61 2.23 2.33 8-.76 4.14-4.68.77Z" transform="translate(-143.73 -155.32)"/><path class="cls-43" d="M780.15 451.22a12.21 12.21 0 0 1 1.87-1.38l.06.11a13.47 13.47 0 0 0-1.88 1.42ZM780.41 452.15a22.89 22.89 0 0 1 2.34-1.73l.08.11a21.3 21.3 0 0 0-2.33 1.72ZM780.44 453.63v-.13a14.8 14.8 0 0 0 3-2.7l.09.09a15.4 15.4 0 0 1-3.09 2.74ZM784.07 450.87c-4.62-3.6-6.4-7-7.08-9.25a8.65 8.65 0 0 1-.36-4.05h.13c0 .07-1.39 6.33 7.39 13.17Z" transform="translate(-143.73 -155.32)"/><path class="cls-43" d="M784.07 450.31c-6.82-6.91-6.41-12.39-6.41-12.44h.13c0 .05-.4 5.48 6.37 12.34Z" transform="translate(-143.73 -155.32)"/><path class="cls-43" d="M784.67 450.08c0-.08-5.17-7.42-5.27-11.68h.13c.1 4.22 5.2 11.53 5.25 11.6ZM785.24 449.77c-1.83-3.45-4-8.14-4-10.89h.13c0 2.72 2.19 7.39 4 10.83ZM786.54 449.32c-.12-.35-2.77-8.51-2.6-9.34h.13c-.14.64 1.63 6.34 2.59 9.27ZM785.9 449.75a24.93 24.93 0 0 0-1.48-4.59c-.89-2.35-1.82-4.78-1.57-5.8h.13c-.24 1 .68 3.39 1.56 5.72a25.09 25.09 0 0 1 1.49 4.63Z" transform="translate(-143.73 -155.32)"/><path class="cls-46" d="M781.8 449.52a2 2 0 0 0 2 1.45 15.81 15.81 0 0 1-2-1.45Z" transform="translate(-143.73 -155.32)"/><path class="cls-42" d="M776.89 434.93s-.57-.07-.77 1.84c.55 2.24 4 2 4 2l.34-1.88Z" transform="translate(-143.73 -155.32)"/><path class="cls-44" d="m647.06 271.39-.31 1.82-1.78.82-2.43-1.52-.02-2.87 1.56-1.22 2.23.92.75 2.05z"/><path class="cls-42" d="M786.05 424.11h.95s-.53 1.91 0 2.78 2.33 1.34 2.33 1.34l1.31-1.29.7.54-1.34 2.35-1.79.34-2.34-.48-1.33-1.85.46-2.84Z" transform="translate(-143.73 -155.32)"/><path class="cls-43" d="M790.58 427.34c-.54.79-1.06.9-1.31 1.8-.48-.76-3-.95-3.58-2.2s1.1-2.83 1.1-2.83 0-1.23-.74-.62-4 1.4-5.08 3c-.86 1.31-4.08 8.44-4.08 8.44s.32 2.18 3.48 2.4a16.85 16.85 0 0 0 5.9-.69l3.77-3 2.24-6.23s-1.41-.5-1.7-.07Z" transform="translate(-143.73 -155.32)"/><path class="cls-52" d="M777.61 434.3s1.12.83 1.81.63c1.1-.31 3.33-3.28 3.33-3.28l-3.34.83Z" transform="translate(-143.73 -155.32)"/><path class="cls-47" d="M774.15 441.4a3.85 3.85 0 0 1 .89 1.2c.19.57.23 1.85-.09 1.9s-.66-1-.8-1a6.38 6.38 0 0 0-.7 1.2s.57 1.47 0 1.71-2-1.72-2-2.63a7.92 7.92 0 0 1 .56-2.55l1-.39Z" transform="translate(-143.73 -155.32)"/><path class="cls-47" d="M776.28 430.9s-1 .93-1.6 1.48c-2.17 1.92-2.66 8.85-2.66 8.85s.35.83 2.13.17c.75-2.86 2-3.62 2.64-6.23a9.54 9.54 0 0 0 1.76-1.25 5.22 5.22 0 0 0 .43-2Z" transform="translate(-143.73 -155.32)"/><path class="cls-43" d="M776.52 430.55c1.85-1.55 3.77-4.22 5.11-4.25a2 2 0 0 1 2 1.3 3.54 3.54 0 0 1-1.08 4.28 15.76 15.76 0 0 1-3.25 2.48c-1.82.57-4.11-2.36-2.78-3.81Z" transform="translate(-143.73 -155.32)"/><path class="cls-45" d="M790.8 427.19a3.1 3.1 0 0 1-1.53 2.12c-1.15.63-1.76.37-2.2-.24a2.31 2.31 0 0 0-.8-1.69 1.56 1.56 0 0 0-.78-1.42 1.44 1.44 0 0 0-2 .85 2.16 2.16 0 0 0 .36 1.51 4.27 4.27 0 0 0 .13 2 6.36 6.36 0 0 1-.36 2.34c-.66 1.55-2.1 1.16-2.62 1.77a4.78 4.78 0 0 0-.95 4.21c.34 1 2 0 4.22 2.11.65.65 1.5-.25 1.71-.95a12.9 12.9 0 0 1 3.32-4.77 4.43 4.43 0 0 0 2.23-2.51 2.07 2.07 0 0 0 .95-1.93 1.89 1.89 0 0 0 .57-2 9 9 0 0 0 .14-.9l-1.18-.06Z" transform="translate(-143.73 -155.32)"/><path class="cls-45" d="M793.24 427.3s.37-1.16-.43-1.71c-.58-.41-1.79.42-1.79.42v2.12Z" transform="translate(-143.73 -155.32)"/><path class="cls-42" d="M784.06 432.24a14.86 14.86 0 0 0 9-3.71 26.54 26.54 0 0 1-9 3.71ZM781.93 434.47a17.73 17.73 0 0 0 10.6-3.92 30.43 30.43 0 0 1-10.6 3.92ZM780.51 436.34c5.91.65 11.07-3.86 11.07-3.86s-5.74 3.63-11.07 3.86ZM780.64 438.61a12.63 12.63 0 0 0 8.52-3.68 22.67 22.67 0 0 1-8.52 3.68ZM784 430.28a3.31 3.31 0 0 0 3-1.21 12.06 12.06 0 0 1-3 1.21ZM783.9 428.32c2 .26 2.37-.94 2.37-.94a6 6 0 0 1-2.37.94Z" transform="translate(-143.73 -155.32)"/><path class="cls-53" d="M793.61 425h-.06a.12.12 0 0 1 0-.17 3.18 3.18 0 0 0 .21-1.85.12.12 0 0 1 .1-.15.13.13 0 0 1 .15.1 3.3 3.3 0 0 1-.24 2 .11.11 0 0 1-.16.07ZM795.08 422.69h-.07a.13.13 0 0 1 0-.18 1.26 1.26 0 0 0-.15-1.53.13.13 0 0 1 .18-.18 1.51 1.51 0 0 1 .19 1.85.14.14 0 0 1-.15.04Z" transform="translate(-143.73 -155.32)"/><path class="cls-53" d="M794.8 424.65a.14.14 0 0 1-.1 0 .13.13 0 0 1 0-.18c.93-.84 0-2.54 0-2.56a.12.12 0 0 1 0-.17.13.13 0 0 1 .18.05c0 .07 1.07 1.89 0 2.87a.12.12 0 0 1-.08-.01Z" transform="translate(-143.73 -155.32)"/><path class="cls-53" d="M794.74 424.66a.12.12 0 0 1-.12-.09 4.52 4.52 0 0 0-.88-1.53.13.13 0 0 1 0-.18.14.14 0 0 1 .19 0 4.53 4.53 0 0 1 .94 1.63.14.14 0 0 1-.09.16Z" transform="translate(-143.73 -155.32)"/><path class="cls-49" d="M793.81 427.34a2.83 2.83 0 0 0-.3-2.51c-.2-.19-.27.2-.27.2l.36.87-.19 1.54Z" transform="translate(-143.73 -155.32)"/><path class="cls-50" d="M793.4 426.9s.37-.42-.42-1.36c-.16-.11.32-.69.42-.65a1.94 1.94 0 0 1 .27 2Z" transform="translate(-143.73 -155.32)"/><path class="cls-53" d="M793.92 426.58a.13.13 0 0 1-.11-.15 2.07 2.07 0 0 0-.49-1.6.13.13 0 0 1 0-.18.12.12 0 0 1 .18 0 2.33 2.33 0 0 1 .57 1.81.14.14 0 0 1-.15.12Z" transform="translate(-143.73 -155.32)"/><path class="cls-47" d="M793.67 422.71a9.26 9.26 0 0 1-.6 3.72c-.21.3-.42.64-1.61.46a15.44 15.44 0 0 1-1.59-.49l-1.26-2 .13-1.8 1.63-.45 1.7-.14s1.61.15 1.6.7Z" transform="translate(-143.73 -155.32)"/><path class="cls-50" d="M792.18 424c2.24-.31 3.24-1.81 2.87-3-.2-.2-5.79 2.11-5.79 2.11l-.2.55a5.26 5.26 0 0 0 3.12.34Z" transform="translate(-143.73 -155.32)"/><path class="cls-50" d="M789.36 423.57c.46 2.31 1.72 3.29 2.79 3.63a1.8 1.8 0 0 0 1.25-.3h.27c.06 0-.28.69-.28.69l-1.59.23-2.18-1.41-1-1.11-.81-1.31.49-1.17.8.08a1.93 1.93 0 0 1 .26.67Z" transform="translate(-143.73 -155.32)"/><path class="cls-49" d="M788.72 423.35s-.28-.1-.3.19a4.2 4.2 0 0 0 .9 2.08 9.88 9.88 0 0 0 2.74 1.95c.72.15 1.61-.65 1.61-.65s.24 0 .14.42c0 .17-.52 1-1.86.75a23.25 23.25 0 0 1-3.53-2.26 2.69 2.69 0 0 1-2.36-1.1c-2.13-2.78-.27-4-.27-4s.31-6.19 5.92-4.24a4.76 4.76 0 0 1 3.34 4.58 2.15 2.15 0 0 1-1.23 2 5.93 5.93 0 0 1-5.1.28Z" transform="translate(-143.73 -155.32)"/><path class="cls-53" d="M786.73 418.5c1.67-2.33 5.27-1.5 5.27-1.5s-3.83-1.82-5.27 1.5ZM791.6 425.73a4.48 4.48 0 0 1-2.27-.58.13.13 0 0 1 0-.18.12.12 0 0 1 .17 0 4.79 4.79 0 0 0 5-.37l.19-.15a.13.13 0 0 1 .18 0 .12.12 0 0 1 0 .18 2.31 2.31 0 0 1-.23.18 5.65 5.65 0 0 1-3.04.92Z" transform="translate(-143.73 -155.32)"/><path class="cls-53" d="M792.23 426.85a3.21 3.21 0 0 1-1.48-.34.14.14 0 0 1 0-.18.14.14 0 0 1 .18-.05 3.17 3.17 0 0 0 3.13-.2 1.23 1.23 0 0 0 .61-1.51.13.13 0 0 1 .25-.07 1.51 1.51 0 0 1-.72 1.81 3.75 3.75 0 0 1-1.97.54Z" transform="translate(-143.73 -155.32)"/><path class="cls-50" d="M786 420.79a6.21 6.21 0 0 1 2.21 4.1 3.88 3.88 0 0 0-2.21-4.1Z" transform="translate(-143.73 -155.32)"/><path class="cls-53" d="M792.72 427.44a1.61 1.61 0 0 1-.61-.12c-.38-.14-3.11-1.61-3.4-3.51v-.07l.06-.05c.08-.07.15 0 .43.05a5.39 5.39 0 0 0 5-.43 2.73 2.73 0 0 0 .81-.82.13.13 0 0 1 .18 0 .12.12 0 0 1 0 .17 3.11 3.11 0 0 1-.88.9 5.68 5.68 0 0 1-5.2.47H789c.41 1.67 2.86 3 3.2 3.13a1.28 1.28 0 0 0 1.17-.08.86.86 0 0 0 .42-.56.13.13 0 0 1 .26 0 1.13 1.13 0 0 1-.54.76 1.49 1.49 0 0 1-.79.16Z" transform="translate(-143.73 -155.32)"/><path class="cls-53" d="M790.89 426.58a.14.14 0 0 1-.13-.1 7.63 7.63 0 0 1-.15-2.26.13.13 0 1 1 .26 0 7.35 7.35 0 0 0 .14 2.16.13.13 0 0 1-.09.16ZM792.66 427.44a.12.12 0 0 1-.08-.16 7.88 7.88 0 0 0 .14-3.15.13.13 0 0 1 .26 0 7.71 7.71 0 0 1-.16 3.27.14.14 0 0 1-.16.04ZM793.8 426.89h-.06a.13.13 0 0 1-.06-.18 8.14 8.14 0 0 0 .75-3.54.13.13 0 0 1 .13-.13.13.13 0 0 1 .13.13 8.44 8.44 0 0 1-.78 3.67.13.13 0 0 1-.11.05Z" transform="translate(-143.73 -155.32)"/><path class="cls-5" d="M779.36 434.3a3.84 3.84 0 0 1-3-3.59c0-.11.25-.26.25-.26a3.86 3.86 0 0 0 3 3.67 1.59 1.59 0 0 1-.25.18Z" transform="translate(-143.73 -155.32)"/><path class="cls-42" d="M779.92 451a2.07 2.07 0 0 0 .19 1.47l.32.13.57-.6a2.51 2.51 0 0 1-.26-1.6 3.87 3.87 0 0 0-.82.6ZM780.91 450.26a2.2 2.2 0 0 0 .45 1.5h.58l.27-.57a2.27 2.27 0 0 1-.41-1.66 4.41 4.41 0 0 0-.89.73Z" transform="translate(-143.73 -155.32)"/><path class="cls-42" d="M780 453.2s-.28-.37-.2-.59a18.2 18.2 0 0 0 2.7-1.61s.23 1 .87 1a18.27 18.27 0 0 1-2.1 1Z" transform="translate(-143.73 -155.32)"/><path class="cls-45" d="M783.18 451.81a15 15 0 0 1-3.55 1.29 1.89 1.89 0 0 0 2.1 1.08 14.42 14.42 0 0 1 3.17-.1 1.65 1.65 0 0 0 .24-1.33Z" transform="translate(-143.73 -155.32)"/><path class="cls-42" d="M783.18 451.81c-.52 1.91 1.73 2.28 1.73 2.28a16.24 16.24 0 0 0-1.73-2.28ZM783.84 450.07c-.26.49.41 1.22.35 1.86s3.2-.66 3.2-.66a4.12 4.12 0 0 0-.28-2.33c-.19-.29-.44.06-1.46.5-.86.38-1.65.4-1.81.63Z" transform="translate(-143.73 -155.32)"/><path class="cls-45" d="M787.8 451.23a2.35 2.35 0 1 1-4.59 1c-.29-1.32 1.62-.83 2.89-1.11s1.41-1.21 1.7.11Z" transform="translate(-143.73 -155.32)"/><path class="cls-42" d="M794.42 443.28a2.78 2.78 0 0 0 .66 1.37h.43l.46-.56a2.44 2.44 0 0 1-.76-1.14h-.4c-.18.11-.35.32-.39.33ZM793 444.21a2.38 2.38 0 0 0 .54 1.23l.53.08.45-.57a1.88 1.88 0 0 1-.66-1.24c.14-.04-.75.47-.86.5Z" transform="translate(-143.73 -155.32)"/><path class="cls-42" d="M793.58 446.14a2.44 2.44 0 0 1-.34-.47 16.79 16.79 0 0 1 1.84-1c.94-.57 1.81-1.3 1.87-1.25s.64.45.64.45v.92l-3 1.37Z" transform="translate(-143.73 -155.32)"/><path class="cls-45" d="M793.79 447.06s-1.31.56-1.11 1 1.24.41 2.32.6a8.3 8.3 0 0 0 2.17.22c.8 0 .59-1.68-.15-1.74a4.37 4.37 0 0 1-2.37-1Z" transform="translate(-143.73 -155.32)"/><path class="cls-42" d="M795.35 446.63s-1.63 0-1.56.43c1 .8 1.56-.43 1.56-.43Z" transform="translate(-143.73 -155.32)"/><path class="cls-45" d="M800.09 443.4h-1.41c-.88 0-2.83 1.94-5.58 2.94.21 1.13 1.45.64 1.45.64s4.88-2.09 6.82-2.66a.46.46 0 0 0 0-.79Z" transform="translate(-143.73 -155.32)"/><path class="cls-42" d="M800.09 443.4c-.33 1.09 1.32.88 1.32.88a4.37 4.37 0 0 1-1.32-.88ZM802.79 440.13a5.86 5.86 0 0 0-1.81-.86c-.24 0 0 .46-.21 1s-.94 1.22-.84 1.52c.19.56 1.93 1.18 1.93 1.18l1.7-1.32Z" transform="translate(-143.73 -155.32)"/><path class="cls-45" d="M803 440a2.35 2.35 0 1 1-2.65 3.88c-1.11-.76 1.15-1.28 1.7-2.82.48-1.23-.13-1.83.95-1.06Z" transform="translate(-143.73 -155.32)"/><path class="cls-51" d="M806.79 431.19s.73-3.31 2-3.53c1.82-.32 4.26 2.88 4 3.51s-1.63.3-1.63.3a9.74 9.74 0 0 1-2 2 2.53 2.53 0 0 1-1.77-.17 1.11 1.11 0 0 1-.8-1 1.94 1.94 0 0 1 .2-1.11Z" transform="translate(-143.73 -155.32)"/><path class="cls-80" d="M808.4 429.93c.1.77 2.77 1.54 2.77 1.54s-2.67-1.92-2.77-1.54ZM807.48 431.51c.51-.08 2.39-.68 2.5.41s-1.66.89-2.36.93a2.64 2.64 0 0 0-.14-1.34Z" transform="translate(-143.73 -155.32)"/><path class="cls-51" d="M807.43 431.51c.55 0 2.26-.21 2.31.47s-1.55.84-2.16.87-.7-1.31-.15-1.34Z" transform="translate(-143.73 -155.32)"/></g><g id="Layer_13" data-name="Layer 13"><path class="cls-5" d="M581.84 229.27v1.39h.73v-1.39l1.6-2.76h-.92l-1.05 1.93-1.04-1.93h-.93l1.61 2.76z"/><path class="cls-5" d="m697.17 381.83-2.17 2.73.49.65h2.27v.79h.73v-4.15Zm.55.59v2.07H696Z" transform="translate(-143.73 -155.32)"/><path class="cls-5" d="M576.4 229.94h-2.12v-3.43h-.74v4.15h2.53l.33-.72z"/><path class="cls-5" d="M723.69 386h.74l-1.67-4.15H722l-1.67 4.15h.74l.36-.9h1.9Zm-1.31-3.25.66 1.63h-1.32ZM709 386h2.73l.33-.72h-2.33v-1h1.87v-.72h-1.87v-1h2l.33-.72H709ZM704.44 381.83V386h.74v-1.41h1l1.07 1.41h.93l-1.17-1.5a1.39 1.39 0 0 0 .58-.39 1.43 1.43 0 0 0 .28-.89 1.29 1.29 0 0 0-.48-1.06 1.7 1.7 0 0 0-1-.31Zm.74.72h1.23a.73.73 0 0 1 .48.11.66.66 0 0 1 .23.54.62.62 0 0 1-.23.53.68.68 0 0 1-.48.11h-1.23ZM713.73 382.55H715a.73.73 0 0 1 .48.11.63.63 0 0 1 .24.54.6.6 0 0 1-.24.53.68.68 0 0 1-.48.11h-1.23Zm2.2-.41a1.7 1.7 0 0 0-1-.31H713V386h.74v-1.4h1.17a1.7 1.7 0 0 0 1-.31 1.42 1.42 0 0 0 0-2.13ZM701.37 381.83h-1.53V386h1.53a2.08 2.08 0 0 0 0-4.15Zm.59 3.32a.81.81 0 0 1-.41.11h-1v-2.71h1a.81.81 0 0 1 .41.11 1.52 1.52 0 0 1 0 2.49Z" transform="translate(-143.73 -155.32)"/><path class="cls-81" d="M565.7 210.68h4.71l-5.82 13.06h-4.7l5.81-13.06zM558.28 210.68h4.71l-3.49 7.83h-4.71l3.49-7.83z"/><path class="cls-81" d="M717.17 366h-.42l-5.81 13.06h6.23a6.53 6.53 0 1 0 0-13.06Z" transform="translate(-143.73 -155.32)"/></g><g id="Layer_9" data-name="Layer 9"><path class="cls-82" d="M373.25 224.68h10.49l-12.98 29.16h-10.5l12.99-29.16z"/><path stroke="#d31c22" stroke-width="2" stroke-miterlimit="10" fill="none" d="M356.68 224.68h10.5l-7.79 17.49h-10.5l7.79-17.49z"/><path class="cls-82" d="M534.24 380h-.93l-13 29.16h13.92a14.58 14.58 0 1 0 0-29.16Z" transform="translate(-143.73 -155.32)"/><path class="cls-17" d="M647 377.14V418a2 2 0 0 1-2 2h-31a2 2 0 0 1-2-2v-46a2 2 0 0 1 2-2h25.6Z" transform="translate(-143.73 -155.32)"/><path class="cls-25" d="M471.27 239.68h15M471.27 243.68h15M471.27 247.68h15M471.27 251.68h15M471.27 255.68h15M471.27 259.68h15"/></g></svg>