<svg xmlns="http://www.w3.org/2000/svg" width="88" height="88" viewBox="0 0 88 88">
    <g>
        <path fill="rgba(0,0,0,0.8)" d="M44 0A44 44 0 1 1 0 44 44 44 0 0 1 44 0z" transform="translate(108.364 -245.803) translate(-108.364 245.803)"/>
        <path fill="#fff" d="M-50.416 259.821a.605.605 0 0 0-.671-.53.6.6 0 0 0-.375.194l-5.423 4.77a23.372 23.372 0 0 0-33.027 1.309A23.371 23.371 0 0 0-88.6 298.59a23.372 23.372 0 0 0 33.027-1.307 23.368 23.368 0 0 0 4.494-7.084 1.265 1.265 0 0 0-.753-1.623 1.264 1.264 0 0 0-1.591.672 20.859 20.859 0 0 1-27.164 11.507A20.861 20.861 0 0 1-92.1 273.591a20.863 20.863 0 0 1 27.164-11.507 20.849 20.849 0 0 1 6.145 3.848l-5.305 4.668a.6.6 0 0 0-.147.841.6.6 0 0 0 .351.24l13.49 2.6a.736.736 0 0 0 .834-.618.756.756 0 0 0 .007-.123z" transform="translate(108.364 -245.803) translate(8.38 8.38)"/>
    </g>
</svg>
