<svg xmlns="http://www.w3.org/2000/svg" xmlns:xlink="http://www.w3.org/1999/xlink" width="82" height="82" viewBox="0 0 82 82">
  <defs>
    <style>
      .cls-1, .cls-5 {
        fill: none;
      }

      .cls-2 {
        fill: rgba(255,255,255,0);
      }

      .cls-3 {
        fill: #838383;
      }

      .cls-4 {
        clip-path: url(#clip-path);
      }

      .cls-5 {
        stroke: #abaaaa;
        stroke-linecap: round;
        stroke-miterlimit: 10;
        stroke-width: 4.8px;
      }

      .cls-6 {
        clip-path: url(#clip-path-2);
      }

      .cls-7 {
        clip-path: url(#clip-path-3);
      }

      .cls-8 {
        clip-path: url(#clip-path-4);
      }

      .cls-9 {
        clip-path: url(#clip-path-5);
      }

      .cls-10 {
        clip-path: url(#clip-path-6);
      }
    </style>
    <clipPath id="clip-path">
      <path id="Path_3355" data-name="Path 3355" class="cls-1" d="M325.056,367.573l-.516,8.7,30.739,17.041,1.986-10.868Z"/>
    </clipPath>
    <clipPath id="clip-path-2">
      <path id="Path_3358" data-name="Path 3358" class="cls-1" d="M308.412,367.6l.516,8.7-30.739,17.041-2.275-11.16Z"/>
    </clipPath>
    <clipPath id="clip-path-3">
      <path id="Path_3359" data-name="Path 3359" class="cls-1" d="M309.313,383.286l.516,8.7-22.662,9.937-2-9.523Z"/>
    </clipPath>
    <clipPath id="clip-path-4">
      <path id="Path_3360" data-name="Path 3360" class="cls-1" d="M310.04,396.316l.516,8.7-22.662,9.937-2-9.523Z"/>
    </clipPath>
    <clipPath id="clip-path-5">
      <path id="Path_3361" data-name="Path 3361" class="cls-1" d="M324.141,383.286l-.516,8.7,22.662,9.937,2-9.523Z"/>
    </clipPath>
    <clipPath id="clip-path-6">
      <path id="Path_3362" data-name="Path 3362" class="cls-1" d="M323.368,396.316l-.516,8.7,22.662,9.937,2-9.523Z"/>
    </clipPath>
  </defs>
  <g id="img_network_error" data-name="img network error" transform="translate(-275.638 -352.862)">
    <rect id="Rectangle_4555" data-name="Rectangle 4555" class="cls-2" width="82" height="82" transform="translate(275.638 352.862)"/>
    <circle id="Ellipse_731" data-name="Ellipse 731" class="cls-3" cx="3.033" cy="3.033" r="3.033" transform="translate(313.701 418.377)"/>
    <g id="Group_4836" data-name="Group 4836">
      <g id="Group_4867" data-name="Group 4867">
        <g id="Group_4866" data-name="Group 4866" class="cls-4">
          <path id="Path_3354" data-name="Path 3354" class="cls-5" d="M354.043,386.149a56.044,56.044,0,0,0-29.307-13.228"/>
        </g>
      </g>
      <g id="Path_3315" data-name="Path 3315">
        <path id="Path_3356" data-name="Path 3356" class="cls-3" d="M316.733,410.149c-1.6,0-2.924-1.527-3.015-3.477l-1.867-39.888a6.643,6.643,0,0,1,1.294-4.329,4.426,4.426,0,0,1,3.467-1.824h.243a4.427,4.427,0,0,1,3.467,1.824,6.654,6.654,0,0,1,1.294,4.329l-1.867,39.888C319.657,408.622,318.333,410.149,316.733,410.149Z"/>
      </g>
      <g id="Group_4869" data-name="Group 4869">
        <g id="Group_4868" data-name="Group 4868" class="cls-6">
          <path id="Path_3357" data-name="Path 3357" class="cls-5" d="M308.739,373.07a56.039,56.039,0,0,0-29.32,13.948"/>
        </g>
      </g>
      <g id="Group_4871" data-name="Group 4871">
        <g id="Group_4870" data-name="Group 4870" class="cls-7">
          <path id="Path_3313" data-name="Path 3313" class="cls-5" d="M289.495,397.556a41.746,41.746,0,0,1,54.617-.726"/>
        </g>
      </g>
      <g id="Group_4873" data-name="Group 4873">
        <g id="Group_4872" data-name="Group 4872" class="cls-8">
          <path id="Path_3312" data-name="Path 3312" class="cls-5" d="M298.735,407.571a27.035,27.035,0,0,1,36.238-.667"/>
        </g>
      </g>
      <g id="Group_4875" data-name="Group 4875">
        <g id="Group_4874" data-name="Group 4874" class="cls-9">
          <path id="Path_3313-2" data-name="Path 3313" class="cls-5" d="M289.495,397.556a41.746,41.746,0,0,1,54.617-.726"/>
        </g>
      </g>
      <g id="Group_4877" data-name="Group 4877">
        <g id="Group_4876" data-name="Group 4876" class="cls-10">
          <path id="Path_3312-2" data-name="Path 3312" class="cls-5" d="M298.735,407.571a27.035,27.035,0,0,1,36.238-.667"/>
        </g>
      </g>
    </g>
  </g>
</svg>
