<svg xmlns="http://www.w3.org/2000/svg" width="58" height="58" viewBox="0 0 58 58">
    <g>
        <path fill="none" stroke="#fff" stroke-width="1.8px" d="M83.891 72.414h-.839a1.29 1.29 0 0 1-1.258-1.291 1.207 1.207 0 0 1 .414-.91l.541-.53a1.355 1.355 0 0 0 0-1.926l-1.23-1.219a1.4 1.4 0 0 0-1.931 0l-.519.519a1.246 1.246 0 0 1-.938.425 1.29 1.29 0 0 1-1.3-1.252v-.844A1.379 1.379 0 0 0 75.482 64H73.8a1.371 1.371 0 0 0-1.346 1.385v.839a1.29 1.29 0 0 1-1.3 1.252 1.233 1.233 0 0 1-.916-.408l-.535-.53a1.359 1.359 0 0 0-.966-.386 1.393 1.393 0 0 0-.966.386l-1.241 1.214a1.359 1.359 0 0 0 0 1.92l.519.519a1.249 1.249 0 0 1 .43.932 1.286 1.286 0 0 1-1.258 1.291h-.831A1.367 1.367 0 0 0 64 73.755v1.677a1.371 1.371 0 0 0 1.39 1.341h.839a1.29 1.29 0 0 1 1.258 1.291 1.249 1.249 0 0 1-.43.932l-.519.513a1.359 1.359 0 0 0 0 1.92l1.23 1.225a1.359 1.359 0 0 0 .966.386 1.393 1.393 0 0 0 .966-.386l.535-.53a1.225 1.225 0 0 1 .916-.408 1.29 1.29 0 0 1 1.3 1.252v.839a1.375 1.375 0 0 0 1.349 1.386h1.677a1.371 1.371 0 0 0 1.346-1.385v-.839a1.282 1.282 0 0 1 2.235-.828l.519.519a1.4 1.4 0 0 0 1.931 0l1.23-1.225a1.365 1.365 0 0 0 0-1.926l-.541-.53a1.216 1.216 0 0 1-.414-.91 1.286 1.286 0 0 1 1.258-1.291h.839a1.283 1.283 0 0 0 1.286-1.341v-1.682a1.268 1.268 0 0 0-1.275-1.341zm-4.839 2.179a4.414 4.414 0 0 1-8.828 0 4.414 4.414 0 0 1 8.828 0z" transform="translate(-1076 -878) translate(1030 832.4)"/>
    </g>
</svg>
