<svg xmlns="http://www.w3.org/2000/svg" width="1065" height="600" viewBox="0 0 1065 600">
    <defs>
        <style>
            .cls-2{fill:#c1c1c1}
        </style>
    </defs>
    <g id="img_null_player" transform="translate(-1258 -856)">
        <path id="Rectangle_4584" fill="#e3e3e3" d="M0 0H1065V600H0z" transform="translate(1258 856)"/>
        <g id="Group_4993" transform="translate(1257.895 855.578)">
            <path id="Path_3273" d="M646.1 344.454v11.124h5.9v-11.114l12.894-22.232h-7.461l-8.38 15.572-8.383-15.572h-7.461z" class="cls-2"/>
            <path id="Path_3274" d="M417.876 322.232l-17.77 21.968 4 5.225h18.168v6.152h5.9v-33.345zm4.393 4.736v16.659h-13.476z" class="cls-2"/>
            <path id="Path_3275" d="M602.386 349.79h-17.03v-27.558h-5.9v33.346h20.319z" class="cls-2"/>
            <path id="Path_3276" d="M630.965 355.578h5.986l-13.386-33.338h-6.188l-13.385 33.338h5.983l2.89-7.222h15.212zm-10.5-26.151l5.275 13.118H615.2z" class="cls-2"/>
            <path id="Path_3277" d="M512.631 355.578h21.955l2.613-5.788h-18.667v-8.221h15v-5.789h-15v-7.759h16.054l2.613-5.789h-24.568z" class="cls-2"/>
            <path id="Path_3278" d="M476.324 322.232v33.346h5.9v-11.294h7.967l8.636 11.294h7.429l-9.4-12.07a10.063 10.063 0 0 0 4.655-3.162 10.947 10.947 0 0 0 2.272-7.084 10.274 10.274 0 0 0-3.869-8.551 13.659 13.659 0 0 0-8.25-2.479zm5.9 5.789h9.885c1.4 0 2.769-.023 3.884.88a5.879 5.879 0 0 1 .324 8.308q-.156.168-.324.324c-1.115.9-2.484.879-3.884.879h-9.885z" class="cls-2"/>
            <path id="Path_3279" d="M550.964 328.021h9.885c1.4 0 2.768-.023 3.883.88a5.878 5.878 0 0 1 .326 8.306c-.1.113-.213.222-.326.326-1.115.9-2.483.879-3.883.879h-9.885zm17.652-3.31a13.652 13.652 0 0 0-8.246-2.479h-15.334v33.346h5.894v-11.286h9.44a13.631 13.631 0 0 0 8.246-2.483 11.377 11.377 0 0 0 0-17.1z" class="cls-2"/>
            <path id="Path_3280" d="M451.624 322.231h-12.282v33.347h12.282c8.833 0 16.024-7.527 16.024-16.673s-7.191-16.674-16.024-16.674zm4.756 26.677a6.321 6.321 0 0 1-3.3.888h-7.858v-21.78h7.858a6.31 6.31 0 0 1 3.3.889 12.237 12.237 0 0 1 0 20.006z" class="cls-2"/>
            <g id="Group_5037">
                <path id="Path_3281" d="M525.362 244.422h20.008L520.624 300h-20.008z" class="cls-2"/>
                <path id="Path_3281-2" d="M525.362 244.422h20.008L520.624 300h-20.008z" class="cls-2"/>
            </g>
            <g id="Group_5038">
                <path id="Path_3282" d="M493.793 244.422H513.8l-14.847 33.347h-20.007z" class="cls-2"/>
                <path id="Path_3282-2" d="M493.793 244.422H513.8l-14.847 33.347h-20.007z" class="cls-2"/>
            </g>
            <g id="Group_5039">
                <path id="Path_3283" d="M558.262 244.422h-1.778L531.74 300h26.522a27.789 27.789 0 0 0 0-55.578z" class="cls-2"/>
                <path id="Path_3283-2" d="M558.262 244.422h-1.778L531.74 300h26.522a27.789 27.789 0 0 0 0-55.578z" class="cls-2"/>
            </g>
        </g>
    </g>
</svg>
